<?xml version="1.0" encoding="utf-8"?>
<!-- Generator: Adobe Illustrator 24.1.3, SVG Export Plug-In . SVG Version: 6.00 Build 0)  -->
<svg version="1.1" id="Layer_1" xmlns="http://www.w3.org/2000/svg" xmlns:xlink="http://www.w3.org/1999/xlink" x="0px" y="0px"
	 viewBox="0 0 71.2 33.8" style="enable-background:new 0 0 71.2 33.8;" xml:space="preserve">
<style type="text/css">
	.st0{opacity:0.52;}
	.st1{clip-path:url(#SVGID_1_);fill:#65BE62;}
	.st2{opacity:0.6;}
	.st3{clip-path:url(#SVGID_2_);fill:none;stroke:#4EB548;stroke-width:0.3825;stroke-miterlimit:10;}
	.st4{clip-path:url(#SVGID_3_);fill:#65BE62;}
	.st5{clip-path:url(#SVGID_4_);fill:none;stroke:#4EB548;stroke-width:0.3825;stroke-miterlimit:10;}
	.st6{clip-path:url(#SVGID_5_);fill:none;stroke:#4EB548;stroke-width:0.3825;stroke-miterlimit:10;}
	.st7{clip-path:url(#SVGID_6_);fill:none;stroke:#4EB548;stroke-width:0.3825;stroke-miterlimit:10;}
	.st8{clip-path:url(#SVGID_7_);fill:none;stroke:#4EB548;stroke-width:0.3825;stroke-miterlimit:10;}
	.st9{clip-path:url(#SVGID_8_);fill:#65BE62;}
	.st10{clip-path:url(#SVGID_9_);fill:#65BE62;}
	.st11{clip-path:url(#SVGID_10_);fill:#65BE62;}
	.st12{clip-path:url(#SVGID_11_);fill:#65BE62;}
	.st13{clip-path:url(#SVGID_12_);fill:#C33F42;}
	.st14{clip-path:url(#SVGID_13_);fill:#C33F42;}
	.st15{clip-path:url(#SVGID_14_);fill:#C33F42;}
	.st16{clip-path:url(#SVGID_15_);fill:#C33F42;}
	.st17{clip-path:url(#SVGID_16_);fill:#C33F42;}
	.st18{clip-path:url(#SVGID_17_);fill:#C33F42;}
	.st19{clip-path:url(#SVGID_18_);fill:none;stroke:#BC2428;stroke-width:0.325;stroke-miterlimit:10;}
	.st20{clip-path:url(#SVGID_19_);fill:none;stroke:#BC2428;stroke-width:0.325;stroke-miterlimit:10;}
	.st21{clip-path:url(#SVGID_20_);fill:none;stroke:#BC2428;stroke-width:0.325;stroke-miterlimit:10;}
	.st22{clip-path:url(#SVGID_21_);fill:#C33F42;}
	.st23{clip-path:url(#SVGID_22_);fill:#C33F42;}
	.st24{clip-path:url(#SVGID_23_);fill:#C33F42;}
	.st25{clip-path:url(#SVGID_24_);fill:#C33F42;}
	.st26{clip-path:url(#SVGID_25_);fill:#C33F42;}
	.st27{clip-path:url(#SVGID_26_);fill:#C33F42;}
	.st28{clip-path:url(#SVGID_27_);fill:#C33F42;}
	.st29{clip-path:url(#SVGID_28_);fill:#65BE62;}
	.st30{clip-path:url(#SVGID_29_);fill:#65BE62;}
	.st31{clip-path:url(#SVGID_30_);fill:#65BE62;}
	.st32{clip-path:url(#SVGID_31_);fill:#65BE62;}
	.st33{clip-path:url(#SVGID_32_);fill:#65BE62;}
	.st34{clip-path:url(#SVGID_33_);fill:#65BE62;}
	.st35{clip-path:url(#SVGID_34_);fill:#65BE62;}
	.st36{clip-path:url(#SVGID_35_);fill:#65BE62;}
	.st37{opacity:0.8;}
	.st38{clip-path:url(#SVGID_36_);}
	.st39{opacity:0.8;fill:#AAD048;}
	.st40{fill:none;stroke:#BC2428;stroke-width:0.3825;stroke-miterlimit:10;}
	.st41{filter:url(#Adobe_OpacityMaskFilter);}
	.st42{fill:url(#SVGID_40_);}
	.st43{mask:url(#SVGID_39_);fill:url(#SVGID_41_);}
	.st44{filter:url(#Adobe_OpacityMaskFilter_1_);}
	.st45{fill:url(#SVGID_43_);}
	.st46{mask:url(#SVGID_42_);fill:url(#SVGID_44_);}
	.st47{fill:none;stroke:#BC2428;stroke-width:0.3442;stroke-miterlimit:10;}
	.st48{filter:url(#Adobe_OpacityMaskFilter_2_);}
	.st49{fill:url(#SVGID_46_);}
	.st50{mask:url(#SVGID_45_);fill:url(#SVGID_47_);}
	.st51{clip-path:url(#SVGID_48_);fill:#C33F42;}
	.st52{filter:url(#Adobe_OpacityMaskFilter_3_);}
	.st53{fill:url(#SVGID_50_);}
	.st54{mask:url(#SVGID_49_);fill:url(#SVGID_51_);}
	.st55{fill:none;stroke:#BC2428;stroke-width:0.2896;stroke-miterlimit:10;}
	.st56{clip-path:url(#SVGID_57_);fill:none;stroke:#BC2428;stroke-width:0.325;stroke-miterlimit:10;}
	.st57{filter:url(#Adobe_OpacityMaskFilter_4_);}
	.st58{fill:url(#SVGID_59_);}
	.st59{mask:url(#SVGID_58_);fill:url(#SVGID_60_);}
	.st60{clip-path:url(#SVGID_61_);fill:none;stroke:#BC2428;stroke-width:0.3825;stroke-miterlimit:10;}
	.st61{clip-path:url(#SVGID_62_);fill:none;stroke:#4EB548;stroke-width:0.3442;stroke-miterlimit:10;}
	.st62{clip-path:url(#SVGID_63_);fill:none;stroke:#4EB548;stroke-width:0.3442;stroke-miterlimit:10;}
	.st63{clip-path:url(#SVGID_64_);fill:none;stroke:#4EB548;stroke-width:0.3442;stroke-miterlimit:10;}
	.st64{clip-path:url(#SVGID_65_);fill:none;stroke:#4EB548;stroke-width:0.3442;stroke-miterlimit:10;}
	.st65{clip-path:url(#SVGID_66_);fill:none;stroke:#4EB548;stroke-width:0.3442;stroke-miterlimit:10;}
	.st66{clip-path:url(#SVGID_67_);fill:none;stroke:#4EB548;stroke-width:0.3442;stroke-miterlimit:10;}
	.st67{clip-path:url(#SVGID_68_);fill:none;stroke:#4EB548;stroke-width:0.3442;stroke-miterlimit:10;}
	.st68{clip-path:url(#SVGID_69_);fill:none;stroke:#4EB548;stroke-width:0.3442;stroke-miterlimit:10;}
	.st69{clip-path:url(#SVGID_70_);fill:none;stroke:#4EB548;stroke-width:0.3442;stroke-miterlimit:10;}
	.st70{clip-path:url(#SVGID_71_);fill:none;stroke:#4EB548;stroke-width:0.3442;stroke-miterlimit:10;}
	.st71{clip-path:url(#SVGID_72_);fill:none;stroke:#4EB548;stroke-width:0.3442;stroke-miterlimit:10;}
	.st72{clip-path:url(#SVGID_73_);fill:none;stroke:#4EB548;stroke-width:0.3442;stroke-miterlimit:10;}
	.st73{clip-path:url(#SVGID_74_);fill:none;stroke:#4EB548;stroke-width:0.3442;stroke-miterlimit:10;}
	.st74{clip-path:url(#SVGID_75_);fill:none;stroke:#4EB548;stroke-width:0.3442;stroke-miterlimit:10;}
	.st75{clip-path:url(#SVGID_80_);fill:none;stroke:#4EB548;stroke-width:0.3442;stroke-miterlimit:10;}
	.st76{clip-path:url(#SVGID_81_);fill:none;stroke:#4EB548;stroke-width:0.3442;stroke-miterlimit:10;}
	.st77{clip-path:url(#SVGID_82_);fill:none;stroke:#4EB548;stroke-width:0.3442;stroke-miterlimit:10;}
	.st78{clip-path:url(#SVGID_83_);fill:none;stroke:#4EB548;stroke-width:0.3442;stroke-miterlimit:10;}
</style>
<g>
	<g class="st0">
		<g>
			<defs>
				
					<rect id="SVGID_1802_" x="54.5" y="10.9" transform="matrix(0.9641 -0.2656 0.2656 0.9641 -1.2457 16.3922)" width="11.1" height="3.8"/>
			</defs>
			<clipPath id="SVGID_1_">
				<use xlink:href="#SVGID_1802_"  style="overflow:visible;"/>
			</clipPath>
			<path class="st1" d="M64.7,12.2l-0.2,0.3c0.2,0.1,0.4,0.2,0.5,0.3c0.1,0.1,0.2,0.1,0.2,0.2c0.1,0.1,0.1,0.2,0.2,0.2l0.2-0.3
				c0-0.1-0.1-0.2-0.2-0.3c-0.1-0.1-0.2-0.1-0.3-0.2C65.1,12.4,64.9,12.3,64.7,12.2"/>
			<path class="st1" d="M62.9,11.4l-0.1,0.3c0.4,0.1,0.8,0.2,1.2,0.4l0.2-0.3C63.8,11.7,63.4,11.5,62.9,11.4"/>
			<path class="st1" d="M61,11.2l0,0.3c0.4,0,0.8,0.1,1.3,0.1l0.1-0.3C61.9,11.2,61.4,11.2,61,11.2"/>
			<path class="st1" d="M59.1,11.2l0,0.3c0.4,0,0.8-0.1,1.3-0.1l0-0.3C59.9,11.1,59.5,11.2,59.1,11.2"/>
			<path class="st1" d="M57.2,11.8l0.2,0.3c0.4-0.2,0.7-0.4,1.1-0.5l-0.1-0.3C58,11.3,57.6,11.6,57.2,11.8"/>
			<path class="st1" d="M55.7,13l0.2,0.2c0.3-0.3,0.6-0.6,0.9-0.8l-0.2-0.3C56.3,12.4,56,12.7,55.7,13"/>
			<path class="st1" d="M54.8,14.9l0.3,0c0-0.2,0-0.4,0.1-0.6c0.1-0.2,0.2-0.4,0.3-0.5l-0.3-0.2c-0.1,0.2-0.2,0.4-0.3,0.6
				C54.8,14.4,54.8,14.6,54.8,14.9"/>
		</g>
	</g>
	<g class="st2">
		<g>
			<defs>
				
					<rect id="SVGID_1804_" x="13.4" y="15.3" transform="matrix(0.9641 -0.2656 0.2656 0.9641 -3.6347 4.183)" width="0.4" height="0.4"/>
			</defs>
			<clipPath id="SVGID_2_">
				<use xlink:href="#SVGID_1804_"  style="overflow:visible;"/>
			</clipPath>
			<path class="st3" d="M13.6,15.7c0,0,0-0.1,0-0.1c0-0.1,0-0.2,0-0.3"/>
		</g>
	</g>
	<g class="st2">
		<g>
			<defs>
				
					<rect id="SVGID_1806_" x="26.6" y="15" transform="matrix(0.9641 -0.2656 0.2656 0.9641 -3.128 7.6903)" width="0.6" height="0.7"/>
			</defs>
			<clipPath id="SVGID_3_">
				<use xlink:href="#SVGID_1806_"  style="overflow:visible;"/>
			</clipPath>
			<polygon class="st4" points="27,15.8 26.6,15.2 26.5,15.2 26.9,15.8 			"/>
			<polygon class="st4" points="27,15.7 26.6,15.2 26.6,15.2 27,15.7 			"/>
			<polygon class="st4" points="27.1,15.7 26.6,15.2 26.6,15.2 27,15.7 			"/>
			<polygon class="st4" points="27.1,15.7 26.7,15.1 26.6,15.2 27.1,15.7 			"/>
			<polygon class="st4" points="27.1,15.7 26.7,15.1 26.7,15.1 27.1,15.7 			"/>
			<polygon class="st4" points="27.2,15.6 26.7,15.1 26.7,15.1 27.1,15.6 			"/>
			<polygon class="st4" points="27.2,15.6 26.8,15.1 26.8,15.1 27.2,15.6 			"/>
		</g>
	</g>
	<g class="st2">
		<g>
			<defs>
				
					<rect id="SVGID_1808_" x="21" y="13.1" transform="matrix(0.9641 -0.2656 0.2656 0.9641 -2.7729 6.1132)" width="0.5" height="0.5"/>
			</defs>
			<clipPath id="SVGID_4_">
				<use xlink:href="#SVGID_1808_"  style="overflow:visible;"/>
			</clipPath>
			<path class="st5" d="M21,13.3c0.2,0,0.2,0.1,0.5,0"/>
		</g>
	</g>
	<g class="st2">
		<g>
			<defs>
				
					<rect id="SVGID_1810_" x="21.6" y="12.8" transform="matrix(0.9641 -0.2656 0.2656 0.9641 -2.6763 6.279)" width="0.6" height="0.6"/>
			</defs>
			<clipPath id="SVGID_5_">
				<use xlink:href="#SVGID_1810_"  style="overflow:visible;"/>
			</clipPath>
			<path class="st6" d="M21.6,13.2c0.2-0.1,0.3-0.2,0.4-0.3"/>
		</g>
	</g>
	<g class="st2">
		<g>
			<defs>
				
					<rect id="SVGID_1812_" x="22.2" y="11.8" transform="matrix(0.9641 -0.2656 0.2656 0.9641 -2.3914 6.3913)" width="0.5" height="0.5"/>
			</defs>
			<clipPath id="SVGID_6_">
				<use xlink:href="#SVGID_1812_"  style="overflow:visible;"/>
			</clipPath>
			<path class="st7" d="M22.4,12.2c0-0.1,0.1-0.2,0.1-0.4"/>
		</g>
	</g>
	<g class="st2">
		<g>
			<defs>
				
					<rect id="SVGID_1814_" x="22" y="12.3" transform="matrix(0.9641 -0.2656 0.2656 0.9641 -2.5426 6.3551)" width="0.5" height="0.5"/>
			</defs>
			<clipPath id="SVGID_7_">
				<use xlink:href="#SVGID_1814_"  style="overflow:visible;"/>
			</clipPath>
			<path class="st8" d="M22.1,12.7c0.1-0.1,0.2-0.2,0.2-0.3"/>
		</g>
	</g>
	<g class="st2">
		<g>
			<defs>
				
					<rect id="SVGID_1816_" x="22" y="8.8" transform="matrix(0.9641 -0.2656 0.2656 0.9641 -1.6602 7.2447)" width="7.9" height="2"/>
			</defs>
			<clipPath id="SVGID_8_">
				<use xlink:href="#SVGID_1816_"  style="overflow:visible;"/>
			</clipPath>
			<path class="st9" d="M29,9.1L29,9.4c0.3,0,0.6,0.1,0.9,0.2l0.1-0.3C29.6,9.2,29.3,9.1,29,9.1"/>
			<path class="st9" d="M27.7,8.9l0,0.3c0.3,0,0.6,0.1,0.9,0.1l0-0.3C28.3,9,28,9,27.7,8.9"/>
			<path class="st9" d="M26.4,8.9l0,0.3c0.3,0,0.6,0,0.9,0l0-0.3C27,8.9,26.7,8.9,26.4,8.9"/>
			<path class="st9" d="M25.1,9l0.1,0.3c0.3,0,0.6-0.1,0.8-0.1l0-0.3C25.7,8.9,25.4,8.9,25.1,9"/>
			<path class="st9" d="M23.8,9.4L24,9.7c0.2-0.1,0.5-0.2,0.8-0.3l-0.1-0.3C24.4,9.1,24.1,9.2,23.8,9.4"/>
			<path class="st9" d="M22.8,10.4l0.3,0.2c0.1-0.2,0.3-0.4,0.5-0.6l-0.2-0.3C23.2,9.8,23,10.1,22.8,10.4"/>
			<path class="st9" d="M22.4,11.6l0.3,0.1c0.1-0.3,0.2-0.5,0.3-0.8l-0.3-0.1C22.6,11,22.5,11.3,22.4,11.6"/>
		</g>
	</g>
	<g class="st2">
		<g>
			<defs>
				
					<rect id="SVGID_1818_" x="17.5" y="5.6" transform="matrix(0.9641 -0.2656 0.2656 0.9641 -1.8315 5.4468)" width="3.5" height="7.9"/>
			</defs>
			<clipPath id="SVGID_9_">
				<use xlink:href="#SVGID_1818_"  style="overflow:visible;"/>
			</clipPath>
			<path class="st10" d="M19.4,13.3L19.2,13c-0.1,0.1-0.3,0.2-0.4,0.2c-0.1,0-0.1,0.1-0.2,0.1l-0.1,0c0,0,0,0,0,0c0,0,0,0,0,0
				c0,0,0,0,0,0c0,0,0,0,0,0c0,0,0,0,0,0c0,0,0,0-0.1,0l0.1,0.3c0,0,0,0,0.1,0c0,0,0,0,0,0c0,0,0,0,0,0c0,0,0,0,0,0c0,0,0,0,0,0
				c0,0,0,0,0,0l0.1,0c0.1,0,0.2-0.1,0.2-0.1C19.1,13.5,19.3,13.4,19.4,13.3"/>
			<path class="st10" d="M20.4,12.1L20.1,12c-0.1,0.3-0.3,0.5-0.5,0.8l0.2,0.2C20,12.7,20.2,12.4,20.4,12.1"/>
			<path class="st10" d="M20.8,10.7l-0.3-0.1c0,0.3-0.1,0.6-0.2,0.9l0.3,0.1C20.7,11.4,20.8,11,20.8,10.7"/>
			<path class="st10" d="M20.8,9.2l-0.3,0c0,0.3,0,0.6,0,1l0.3,0C20.9,9.9,20.9,9.5,20.8,9.2"/>
			<path class="st10" d="M20.5,7.7l-0.3,0.1c0.1,0.3,0.2,0.6,0.2,0.9l0.3-0.1C20.7,8.4,20.6,8,20.5,7.7"/>
			<path class="st10" d="M19.8,6.4l-0.3,0.2c0.2,0.2,0.3,0.5,0.5,0.8l0.3-0.1C20.2,6.9,20.1,6.6,19.8,6.4"/>
			<path class="st10" d="M18.5,5.6L18.4,6c0.2,0,0.3,0.1,0.4,0.1c0.1,0.1,0.3,0.1,0.4,0.2L19.4,6c-0.1-0.1-0.3-0.2-0.5-0.2
				C18.8,5.7,18.6,5.7,18.5,5.6"/>
		</g>
	</g>
	<g class="st2">
		<g>
			<defs>
				
					<rect id="SVGID_1820_" x="48.2" y="6.2" transform="matrix(0.9641 -0.2656 0.2656 0.9641 -0.8087 13.7283)" width="4.4" height="7.2"/>
			</defs>
			<clipPath id="SVGID_10_">
				<use xlink:href="#SVGID_1820_"  style="overflow:visible;"/>
			</clipPath>
			<path class="st11" d="M50.6,6.2l0.2,0.3c0.2-0.2,0.5-0.3,0.8-0.3l-0.2-0.3C51.1,5.9,50.8,6,50.6,6.2"/>
			<path class="st11" d="M49.7,7.3L50,7.4c0.1-0.3,0.3-0.5,0.5-0.7l-0.3-0.2C50,6.7,49.8,7,49.7,7.3"/>
			<path class="st11" d="M49.1,8.5l0.3,0.1c0.1-0.3,0.2-0.6,0.3-0.8l-0.3-0.1C49.3,7.9,49.2,8.2,49.1,8.5"/>
			<path class="st11" d="M48.8,9.9l0.3,0.1c0.1-0.3,0.1-0.6,0.2-0.9L49,9C48.9,9.3,48.9,9.6,48.8,9.9"/>
			<path class="st11" d="M48.6,11.2l0.3,0c0-0.3,0.1-0.6,0.1-0.9l-0.3-0.1C48.7,10.6,48.6,10.9,48.6,11.2"/>
			<path class="st11" d="M48.9,12.6l0.3-0.1c-0.1-0.3-0.2-0.6-0.2-0.9l-0.3,0C48.7,12,48.8,12.3,48.9,12.6"/>
			<path class="st11" d="M49.3,13.9l0.3-0.1c-0.1-0.3-0.2-0.6-0.3-0.8L49,13C49.1,13.3,49.2,13.6,49.3,13.9"/>
		</g>
	</g>
	<g class="st2">
		<g>
			<defs>
				
					<rect id="SVGID_1822_" x="44" y="7.8" transform="matrix(0.9641 -0.2656 0.2656 0.9641 -1.3393 12.5575)" width="3.5" height="7"/>
			</defs>
			<clipPath id="SVGID_11_">
				<use xlink:href="#SVGID_1822_"  style="overflow:visible;"/>
			</clipPath>
			<path class="st12" d="M45.7,7.8l0.2,0.3c0.2-0.2,0.4-0.3,0.7-0.3l0-0.3c-0.2,0-0.3,0.1-0.5,0.2c-0.1,0-0.1,0.1-0.2,0.1
				C45.8,7.7,45.7,7.8,45.7,7.8"/>
			<path class="st12" d="M44.8,8.9L45.1,9c0.1-0.2,0.3-0.5,0.5-0.7l-0.2-0.2C45.1,8.4,45,8.6,44.8,8.9"/>
			<path class="st12" d="M44.4,10.1l0.3,0c0-0.3,0.1-0.5,0.2-0.8l-0.3-0.1C44.5,9.5,44.5,9.8,44.4,10.1"/>
			<path class="st12" d="M44.4,11.4l0.3,0c0-0.3,0-0.6,0-0.9l-0.3,0C44.4,10.9,44.4,11.1,44.4,11.4"/>
			<path class="st12" d="M44.4,12.7l0.3,0c0-0.3,0-0.6,0-0.8l-0.3,0C44.3,12.1,44.3,12.4,44.4,12.7"/>
			<path class="st12" d="M45,14l0.3-0.2c-0.2-0.2-0.3-0.4-0.4-0.7l-0.3,0.1C44.6,13.5,44.8,13.7,45,14"/>
			<path class="st12" d="M46.1,14.7l0-0.3c-0.1,0-0.2-0.1-0.3-0.1c-0.1-0.1-0.2-0.2-0.3-0.2l-0.2,0.3c0.1,0.1,0.2,0.2,0.4,0.3
				c0.1,0,0.1,0.1,0.2,0.1C45.9,14.7,46,14.7,46.1,14.7"/>
		</g>
	</g>
	<g class="st2">
		<g>
			<defs>
				
					<rect id="SVGID_1824_" x="55.9" y="18.5" transform="matrix(0.9641 -0.2656 0.2656 0.9641 -3.3701 16.8791)" width="9.7" height="4.7"/>
			</defs>
			<clipPath id="SVGID_12_">
				<use xlink:href="#SVGID_1824_"  style="overflow:visible;"/>
			</clipPath>
			<path class="st13" d="M64.8,21.7l0.2,0.3c0.2-0.1,0.3-0.2,0.5-0.4c0.1-0.1,0.3-0.3,0.3-0.5l-0.3-0.2c-0.1,0.2-0.2,0.3-0.3,0.5
				C65.1,21.4,64.9,21.5,64.8,21.7"/>
			<path class="st13" d="M63.2,22.3l0.1,0.3c0.4-0.1,0.8-0.2,1.2-0.4l-0.2-0.3C64,22.1,63.6,22.2,63.2,22.3"/>
			<path class="st13" d="M61.5,22.5l0,0.3c0.4,0,0.8-0.1,1.2-0.1l-0.1-0.3C62.3,22.5,61.9,22.5,61.5,22.5"/>
			<path class="st13" d="M59.8,22.5l0,0.3c0.4,0,0.8,0,1.2,0l0-0.3C60.5,22.6,60.1,22.6,59.8,22.5"/>
			<path class="st13" d="M58.1,22.2L58,22.5c0.2,0.1,0.4,0.2,0.6,0.2c0.1,0,0.2,0,0.3,0.1l0.3,0l0-0.3l-0.3,0c-0.1,0-0.2,0-0.3-0.1
				C58.4,22.3,58.3,22.2,58.1,22.2"/>
			<path class="st13" d="M56.6,21.3l-0.2,0.3c0.3,0.3,0.7,0.5,1,0.7l0.2-0.3C57.2,21.7,56.9,21.5,56.6,21.3"/>
			<path class="st13" d="M55.9,20l-0.3-0.1c-0.1,0.2,0,0.5,0.1,0.7c0.1,0.2,0.2,0.4,0.3,0.6l0.3-0.2C56,20.6,55.8,20.3,55.9,20"/>
		</g>
	</g>
	<g class="st2">
		<g>
			<defs>
				
					<rect id="SVGID_1826_" x="54.8" y="5.6" transform="matrix(0.9641 -0.2656 0.2656 0.9641 -0.813 15.6188)" width="5" height="10.5"/>
			</defs>
			<clipPath id="SVGID_13_">
				<use xlink:href="#SVGID_1826_"  style="overflow:visible;"/>
			</clipPath>
			<path class="st14" d="M57.4,6.1l0.3,0.2C57.9,6.2,58,6,58.1,5.9l0.4-0.5l-0.3-0.2l-0.4,0.5C57.7,5.8,57.6,6,57.4,6.1"/>
			<path class="st14" d="M56.5,7.7l0.4,0.2c0.1-0.2,0.2-0.4,0.3-0.5c0.1-0.2,0.2-0.3,0.3-0.5l-0.3-0.2C57,6.8,56.9,7,56.8,7.2
				C56.7,7.3,56.6,7.5,56.5,7.7"/>
			<path class="st14" d="M55.8,9.4l0.4,0.1c0.1-0.4,0.3-0.7,0.4-1.1l-0.4-0.2C56.1,8.6,55.9,9,55.8,9.4"/>
			<path class="st14" d="M55.4,11.2l0.4,0c0-0.4,0.1-0.8,0.2-1.2L55.7,10C55.6,10.4,55.5,10.8,55.4,11.2"/>
			<path class="st14" d="M55.4,13l0.4,0c0-0.4-0.1-0.8,0-1.2l-0.4,0C55.4,12.2,55.4,12.6,55.4,13"/>
			<path class="st14" d="M55.9,14.8l0.4-0.2c-0.2-0.4-0.3-0.7-0.3-1.1l-0.4,0.1C55.6,14,55.7,14.4,55.9,14.8"/>
			<path class="st14" d="M56.9,16.4l0.3-0.3c-0.3-0.3-0.5-0.6-0.7-0.9l-0.3,0.2C56.4,15.7,56.6,16.1,56.9,16.4"/>
		</g>
	</g>
	<g class="st2">
		<g>
			<defs>
				
					<rect id="SVGID_1828_" x="53.4" y="20" transform="matrix(0.9641 -0.2656 0.2656 0.9641 -4.2972 16.0323)" width="7.4" height="7.9"/>
			</defs>
			<clipPath id="SVGID_14_">
				<use xlink:href="#SVGID_1828_"  style="overflow:visible;"/>
			</clipPath>
			<path class="st15" d="M60.5,26.7l0,0.3c0.4-0.1,0.8-0.2,1.2-0.4l-0.1-0.3C61.2,26.5,60.9,26.6,60.5,26.7"/>
			<path class="st15" d="M58.8,26.6l-0.1,0.3c0.4,0.1,0.8,0.1,1.2,0.1l0-0.3C59.6,26.7,59.2,26.7,58.8,26.6"/>
			<path class="st15" d="M57.2,26.1L57,26.4c0.4,0.2,0.8,0.3,1.1,0.4l0.1-0.3C57.9,26.3,57.5,26.2,57.2,26.1"/>
			<path class="st15" d="M55.6,25.2l-0.2,0.3c0.3,0.2,0.7,0.4,1,0.6l0.1-0.3C56.3,25.7,55.9,25.5,55.6,25.2"/>
			<path class="st15" d="M54.3,24.1l-0.2,0.2c0.1,0.1,0.3,0.3,0.4,0.4c0.1,0.1,0.3,0.3,0.4,0.4l0.2-0.3c-0.1-0.1-0.3-0.3-0.4-0.4
				C54.6,24.4,54.5,24.3,54.3,24.1"/>
			<path class="st15" d="M53.3,22.7L53,22.8c0.2,0.4,0.4,0.7,0.6,1.1l0.3-0.2C53.7,23.4,53.5,23,53.3,22.7"/>
			<path class="st15" d="M53.3,21.1L53,21c-0.1,0.2-0.1,0.4-0.2,0.6c0,0.1,0,0.2,0,0.3c0,0.1,0,0.1,0,0.2c0,0.1,0,0.1,0,0.2l0.3-0.1
				c0,0,0-0.1,0-0.1c0,0,0-0.1,0-0.1l0-0.1c0,0,0,0,0-0.1l0-0.1C53.2,21.5,53.2,21.3,53.3,21.1"/>
		</g>
	</g>
	<g class="st2">
		<g>
			<defs>
				
					<rect id="SVGID_1830_" x="49.1" y="21.1" transform="matrix(0.9641 -0.2656 0.2656 0.9641 -4.8797 14.2186)" width="2.1" height="8"/>
			</defs>
			<clipPath id="SVGID_15_">
				<use xlink:href="#SVGID_1830_"  style="overflow:visible;"/>
			</clipPath>
			<path class="st16" d="M51.3,28.4l-0.2,0.3c0.3,0.1,0.6,0.2,0.9,0.2l0.1-0.3C51.9,28.5,51.6,28.5,51.3,28.4"/>
			<path class="st16" d="M50.3,27.5L50,27.7c0.2,0.3,0.4,0.5,0.7,0.7l0.2-0.2C50.7,28,50.5,27.8,50.3,27.5"/>
			<path class="st16" d="M49.7,26.3l-0.3,0.1c0.1,0.3,0.2,0.6,0.4,0.9l0.3-0.2C50,26.9,49.8,26.6,49.7,26.3"/>
			<path class="st16" d="M49.4,25L49,25.1c0.1,0.3,0.1,0.6,0.2,0.9l0.3-0.1C49.5,25.6,49.4,25.3,49.4,25"/>
			<path class="st16" d="M49.2,23.7l-0.3,0c0,0.3,0.1,0.6,0.1,1l0.3,0C49.3,24.3,49.2,24,49.2,23.7"/>
			<path class="st16" d="M49.5,22.4l-0.3-0.1c-0.1,0.3-0.3,0.6-0.3,0.9l0.3,0.1C49.2,23,49.4,22.7,49.5,22.4"/>
			<path class="st16" d="M50.1,21.2l-0.3-0.2c-0.2,0.3-0.3,0.5-0.4,0.8l0.3,0.1C49.8,21.8,49.9,21.5,50.1,21.2"/>
		</g>
	</g>
	<g class="st2">
		<g>
			<defs>
				
					<rect id="SVGID_1832_" x="45.2" y="20.7" transform="matrix(0.9641 -0.2656 0.2656 0.9641 -4.7636 13.2669)" width="2.9" height="7"/>
			</defs>
			<clipPath id="SVGID_16_">
				<use xlink:href="#SVGID_1832_"  style="overflow:visible;"/>
			</clipPath>
			<path class="st17" d="M46.8,27l-0.2,0.3c0.2,0.2,0.5,0.4,0.8,0.4l0-0.3C47.2,27.3,47,27.2,46.8,27"/>
			<path class="st17" d="M46.1,26.1l-0.3,0.1c0.1,0.3,0.3,0.5,0.5,0.7l0.3-0.2C46.3,26.5,46.2,26.3,46.1,26.1"/>
			<path class="st17" d="M45.8,24.9l-0.3,0c0,0.1,0,0.3,0.1,0.4c0,0.1,0.1,0.3,0.1,0.4l0.3-0.1c0-0.1-0.1-0.3-0.1-0.4
				C45.8,25.2,45.8,25.1,45.8,24.9"/>
			<path class="st17" d="M45.7,23.7l-0.3,0c0,0.3,0,0.6,0,0.8l0.3,0C45.8,24.3,45.8,24,45.7,23.7"/>
			<path class="st17" d="M45.8,22.5l-0.3-0.1c0,0.3,0,0.6,0,0.9l0.3,0C45.7,23,45.7,22.7,45.8,22.5"/>
			<path class="st17" d="M46.3,21.5L46,21.3c-0.2,0.2-0.4,0.5-0.5,0.7l0.3,0.1C46,21.9,46.1,21.7,46.3,21.5"/>
			<path class="st17" d="M47.2,20.8l0-0.3c-0.2,0-0.3,0.1-0.5,0.2c-0.1,0.1-0.2,0.2-0.4,0.3l0.2,0.3c0.1-0.1,0.2-0.2,0.3-0.2
				C47,20.9,47.1,20.9,47.2,20.8"/>
		</g>
	</g>
	<g class="st2">
		<g>
			<defs>
				
					<rect id="SVGID_1834_" x="26.9" y="17.6" transform="matrix(0.9641 -0.2656 0.2656 0.9641 -4.8827 9.7488)" width="13.4" height="10.6"/>
			</defs>
			<clipPath id="SVGID_17_">
				<use xlink:href="#SVGID_1834_"  style="overflow:visible;"/>
			</clipPath>
			<path class="st18" d="M40.5,25.8l0,0.3c0.3,0,0.6,0.1,0.9,0.1l0-0.3C41.1,25.9,40.8,25.9,40.5,25.8"/>
			<polygon class="st18" points="39.2,25.7 39.2,26 40.1,26.1 40.1,25.8 			"/>
			<polygon class="st18" points="37.9,25.5 37.9,25.8 38.8,25.9 38.8,25.6 			"/>
			<path class="st18" d="M36.7,25.3l-0.1,0.3c0.3,0.1,0.6,0.1,0.9,0.1l0-0.3C37.2,25.4,36.9,25.3,36.7,25.3"/>
			<polygon class="st18" points="35.4,25 35.3,25.3 36.2,25.5 36.2,25.2 			"/>
			<path class="st18" d="M34.1,24.7L34.1,25c0.3,0.1,0.6,0.1,0.9,0.2l0.1-0.3C34.7,24.8,34.4,24.8,34.1,24.7"/>
			<path class="st18" d="M32.9,24.4l-0.1,0.3c0.3,0.1,0.6,0.2,0.8,0.2l0.1-0.3C33.4,24.5,33.2,24.4,32.9,24.4"/>
			<path class="st18" d="M31.6,24l-0.1,0.3c0.3,0.1,0.6,0.2,0.8,0.2l0.1-0.3C32.2,24.2,31.9,24.1,31.6,24"/>
			<path class="st18" d="M30.4,23.6l-0.1,0.3c0.3,0.1,0.6,0.2,0.8,0.3l0.1-0.3C30.9,23.8,30.7,23.7,30.4,23.6"/>
			<path class="st18" d="M29.2,23.1l-0.1,0.3c0.1,0.1,0.3,0.1,0.4,0.2l0.4,0.2l0.1-0.3l-0.4-0.2C29.5,23.2,29.3,23.2,29.2,23.1"/>
			<path class="st18" d="M28,22.6l-0.2,0.3c0.1,0.1,0.3,0.1,0.4,0.2c0.1,0.1,0.3,0.1,0.4,0.2l0.1-0.3c-0.1-0.1-0.3-0.1-0.4-0.2
				C28.3,22.7,28.2,22.6,28,22.6"/>
			<path class="st18" d="M27,21.8L26.8,22c0.2,0.2,0.5,0.4,0.7,0.6l0.2-0.3C27.4,22.2,27.2,22,27,21.8"/>
			<path class="st18" d="M26.4,20.8l-0.3,0.1c0.1,0.3,0.2,0.6,0.4,0.9l0.3-0.2C26.6,21.3,26.5,21,26.4,20.8"/>
			<path class="st18" d="M26.5,19.5l-0.3,0c0,0.1,0,0.3,0,0.4c0,0.1,0,0.2,0,0.2c0,0.1,0,0.2,0,0.2l0.3,0c0-0.1,0-0.1,0-0.2
				c0-0.1,0-0.1,0-0.2c0,0,0-0.1,0-0.1c0,0,0-0.1,0-0.1C26.5,19.7,26.5,19.6,26.5,19.5"/>
		</g>
	</g>
	<g class="st2">
		<g>
			<defs>
				
					<rect id="SVGID_1836_" x="22.6" y="21.8" transform="matrix(0.9641 -0.2656 0.2656 0.9641 -5.0161 6.8498)" width="0.3" height="0.4"/>
			</defs>
			<clipPath id="SVGID_18_">
				<use xlink:href="#SVGID_1836_"  style="overflow:visible;"/>
			</clipPath>
			<path class="st19" d="M22.8,21.8c0,0.1,0.1,0.2,0.1,0.4"/>
		</g>
	</g>
	<g class="st2">
		<g>
			<defs>
				
					<rect id="SVGID_1838_" x="22.4" y="21.2" transform="matrix(0.9641 -0.2656 0.2656 0.9641 -4.8722 6.7707)" width="0.5" height="0.5"/>
			</defs>
			<clipPath id="SVGID_19_">
				<use xlink:href="#SVGID_1838_"  style="overflow:visible;"/>
			</clipPath>
			<path class="st20" d="M22.5,21.3c0.1,0.1,0.2,0.2,0.3,0.3"/>
		</g>
	</g>
	<g class="st2">
		<g>
			<defs>
				
					<rect id="SVGID_1840_" x="21.8" y="20.6" transform="matrix(0.9641 -0.2656 0.2656 0.9641 -4.7686 6.6088)" width="0.6" height="0.6"/>
			</defs>
			<clipPath id="SVGID_20_">
				<use xlink:href="#SVGID_1840_"  style="overflow:visible;"/>
			</clipPath>
			<path class="st21" d="M21.8,20.8c0.2,0.1,0.3,0.2,0.4,0.3"/>
		</g>
	</g>
	<g class="st2">
		<g>
			<defs>
				
					<rect id="SVGID_1842_" x="23.4" y="21.7" transform="matrix(0.9641 -0.2656 0.2656 0.9641 -5.5806 7.5648)" width="3.6" height="5.4"/>
			</defs>
			<clipPath id="SVGID_21_">
				<use xlink:href="#SVGID_1842_"  style="overflow:visible;"/>
			</clipPath>
			<path class="st22" d="M26.9,26.3l-0.1,0.3c0.1,0,0.2,0.1,0.3,0.1c0.1,0,0.2,0,0.3,0l0.1-0.3c-0.1,0-0.2,0.1-0.3,0.1
				C27.1,26.3,27,26.3,26.9,26.3"/>
			<path class="st22" d="M26,25.9l-0.2,0.3c0.2,0.1,0.4,0.2,0.6,0.3l0.1-0.3C26.4,26.1,26.2,26,26,25.9"/>
			<path class="st22" d="M25.2,25.3L25,25.6c0.2,0.1,0.4,0.3,0.6,0.4l0.2-0.3C25.6,25.6,25.4,25.5,25.2,25.3"/>
			<path class="st22" d="M24.5,24.7l-0.2,0.2c0.2,0.2,0.3,0.3,0.5,0.5l0.2-0.3C24.8,25,24.6,24.8,24.5,24.7"/>
			<path class="st22" d="M23.9,24l-0.3,0.2c0.1,0.2,0.3,0.4,0.4,0.5l0.3-0.2C24.1,24.3,24,24.1,23.9,24"/>
			<path class="st22" d="M23.4,23.1l-0.3,0.1c0.1,0.2,0.2,0.4,0.3,0.6l0.3-0.2C23.6,23.5,23.5,23.3,23.4,23.1"/>
			<path class="st22" d="M23.1,22.2l-0.3,0.1c0.1,0.2,0.1,0.4,0.2,0.7l0.3-0.1C23.2,22.6,23.1,22.4,23.1,22.2"/>
		</g>
	</g>
	<g class="st2">
		<g>
			<defs>
				
					<rect id="SVGID_1844_" x="17.8" y="20.3" transform="matrix(0.9641 -0.2656 0.2656 0.9641 -5.7514 6.0865)" width="3.7" height="8.1"/>
			</defs>
			<clipPath id="SVGID_22_">
				<use xlink:href="#SVGID_1844_"  style="overflow:visible;"/>
			</clipPath>
			<path class="st23" d="M19.6,21l0.2-0.3c-0.1-0.1-0.3-0.2-0.5-0.3c-0.1,0-0.2-0.1-0.2-0.1l-0.1,0l0,0c0,0,0,0,0,0c0,0,0,0,0,0
				c0,0,0,0,0,0c0,0,0,0,0,0c0,0,0,0,0,0c0,0,0,0-0.1,0l-0.1,0.3c0,0,0,0,0.1,0c0,0,0,0,0,0c0,0,0,0,0,0c0,0,0,0,0,0c0,0,0,0,0,0
				c0,0,0,0,0,0l0,0l0.1,0c0.1,0,0.1,0.1,0.2,0.1C19.4,20.8,19.5,20.9,19.6,21"/>
			<path class="st23" d="M20.5,22.1l0.3-0.2c-0.2-0.3-0.4-0.6-0.6-0.9L20,21.3C20.2,21.5,20.4,21.8,20.5,22.1"/>
			<path class="st23" d="M20.9,23.4l0.3,0c0-0.3-0.1-0.7-0.2-1l-0.3,0.1C20.8,22.8,20.9,23.1,20.9,23.4"/>
			<path class="st23" d="M20.9,24.9l0.3,0c0-0.3,0.1-0.7,0-1l-0.3,0C21,24.2,20.9,24.6,20.9,24.9"/>
			<path class="st23" d="M20.6,26.3l0.3,0.1c0.1-0.3,0.2-0.7,0.3-1l-0.3-0.1C20.8,25.7,20.7,26,20.6,26.3"/>
			<path class="st23" d="M19.9,27.6l0.3,0.2c0.2-0.3,0.4-0.6,0.5-0.9l-0.3-0.1C20.3,27,20.1,27.3,19.9,27.6"/>
			<path class="st23" d="M18.8,28.4l0.1,0.3l0.1,0c0,0,0.1,0,0.1,0c0.1,0,0.2-0.1,0.2-0.1c0.2-0.1,0.3-0.2,0.4-0.3l-0.2-0.3
				c-0.1,0.1-0.2,0.2-0.4,0.3c-0.1,0-0.1,0.1-0.2,0.1c0,0-0.1,0-0.1,0L18.8,28.4z"/>
		</g>
	</g>
	<g class="st2">
		<g>
			<defs>
				
					<rect id="SVGID_1846_" x="10.2" y="20.8" transform="matrix(0.9641 -0.2656 0.2656 0.9641 -5.8741 4.6901)" width="8.5" height="6.6"/>
			</defs>
			<clipPath id="SVGID_23_">
				<use xlink:href="#SVGID_1846_"  style="overflow:visible;"/>
			</clipPath>
			<path class="st24" d="M12.3,28l-0.1-0.3c-0.3,0.2-0.7,0.3-1.1,0.3l0.1,0.3C11.6,28.3,12,28.2,12.3,28"/>
			<path class="st24" d="M13.8,27l-0.2-0.3c-0.3,0.3-0.6,0.5-0.9,0.7l0.2,0.3C13.2,27.5,13.5,27.3,13.8,27"/>
			<path class="st24" d="M15.1,25.8l-0.2-0.2c-0.3,0.3-0.5,0.6-0.8,0.8l0.2,0.3C14.6,26.3,14.8,26.1,15.1,25.8"/>
			<path class="st24" d="M16.3,24.5L16,24.2c-0.2,0.3-0.5,0.6-0.8,0.9l0.2,0.2C15.8,25.1,16,24.8,16.3,24.5"/>
			<path class="st24" d="M17.4,23l-0.3-0.2c-0.2,0.3-0.4,0.6-0.7,0.9l0.3,0.2C16.9,23.7,17.1,23.4,17.4,23"/>
			<path class="st24" d="M18.1,21.3l-0.3,0c0,0.2-0.1,0.4-0.1,0.5c-0.1,0.2-0.1,0.3-0.2,0.5l0.3,0.2c0.1-0.2,0.2-0.4,0.3-0.6
				C18,21.8,18,21.6,18.1,21.3"/>
			<path class="st24" d="M16.8,20l-0.1,0.3c0.2,0,0.3,0.1,0.5,0.2c0.1,0,0.1,0.1,0.2,0.2l0.1,0.1c0,0,0,0,0,0c0,0,0,0,0,0l0.3-0.2
				c0,0,0,0-0.1-0.1c0,0,0,0-0.1-0.1l-0.1-0.1c-0.1-0.1-0.2-0.1-0.2-0.2c-0.1-0.1-0.2-0.1-0.3-0.2C17,20.1,16.9,20,16.8,20"/>
		</g>
	</g>
	<g class="st2">
		<g>
			<defs>
				
					<rect id="SVGID_1848_" x="6.3" y="20.5" transform="matrix(0.9641 -0.2656 0.2656 0.9641 -5.477 3.9014)" width="10.8" height="3.5"/>
			</defs>
			<clipPath id="SVGID_24_">
				<use xlink:href="#SVGID_1848_"  style="overflow:visible;"/>
			</clipPath>
			<path class="st25" d="M7.2,24.1l0.1-0.3c-0.2-0.1-0.4-0.2-0.6-0.2l-0.2,0.3C6.7,23.9,6.9,24,7.2,24.1"/>
			<path class="st25" d="M8.2,24.3l0-0.3c-0.1,0-0.2,0-0.3-0.1c-0.1,0-0.2,0-0.3-0.1l-0.1,0.3c0.1,0,0.2,0,0.3,0.1
				C7.9,24.3,8,24.3,8.2,24.3"/>
			<path class="st25" d="M9.2,24.4l0-0.3c-0.1,0-0.2,0-0.3,0c-0.1,0-0.2,0-0.3,0l0,0.3c0.1,0,0.2,0,0.3,0C8.9,24.3,9,24.4,9.2,24.4"
				/>
			<polygon class="st25" points="10.2,24.3 10.1,24 9.8,24 9.5,24 9.5,24.3 9.8,24.3 			"/>
			<path class="st25" d="M11.1,24.1l-0.1-0.3c-0.2,0-0.4,0.1-0.6,0.1l0.1,0.3C10.7,24.2,10.9,24.2,11.1,24.1"/>
			<path class="st25" d="M12.1,23.9L12,23.6c-0.2,0.1-0.4,0.1-0.6,0.2l0.1,0.3C11.7,24,11.9,23.9,12.1,23.9"/>
			<polygon class="st25" points="13.1,23.6 13,23.3 12.3,23.5 12.4,23.8 			"/>
			<path class="st25" d="M14,23.3L13.9,23c-0.2,0.1-0.4,0.1-0.6,0.2l0.1,0.3C13.6,23.5,13.8,23.4,14,23.3"/>
			<path class="st25" d="M15,23l-0.1-0.3c-0.2,0.1-0.4,0.2-0.6,0.2l0.1,0.3C14.5,23.2,14.7,23.1,15,23"/>
			<path class="st25" d="M15.9,22.6l-0.2-0.3c-0.2,0.1-0.4,0.2-0.6,0.3l0.1,0.3C15.5,22.8,15.7,22.7,15.9,22.6"/>
			<path class="st25" d="M16.7,21.9l-0.3-0.2c-0.1,0.2-0.3,0.3-0.4,0.4l0.2,0.3C16.3,22.3,16.5,22.1,16.7,21.9"/>
			<path class="st25" d="M16.9,20.8l-0.3,0.1c0,0.2,0,0.4,0,0.6l0.3,0.1C17,21.4,17,21.1,16.9,20.8"/>
			<path class="st25" d="M16.3,19.9l-0.2,0.3c0.2,0.1,0.3,0.3,0.4,0.5l0.3-0.2C16.7,20.3,16.5,20.1,16.3,19.9"/>
			<path class="st25" d="M15.5,19.4l-0.2,0.3c0.2,0.1,0.4,0.2,0.5,0.3l0.2-0.3C15.9,19.6,15.7,19.5,15.5,19.4"/>
		</g>
	</g>
	<g class="st2">
		<g>
			<defs>
				
					<rect id="SVGID_1850_" x="4.8" y="19.3" transform="matrix(0.9641 -0.2656 0.2656 0.9641 -5.017 3.2106)" width="9.1" height="1.7"/>
			</defs>
			<clipPath id="SVGID_25_">
				<use xlink:href="#SVGID_1850_"  style="overflow:visible;"/>
			</clipPath>
			<path class="st26" d="M5.6,21.4l0.1-0.3c-0.1-0.1-0.3-0.1-0.4-0.2C5.1,20.8,5,20.7,5,20.5l-0.1,0.3C4.9,21,5,21.1,5.1,21.2
				C5.3,21.3,5.4,21.4,5.6,21.4"/>
			<path class="st26" d="M7,21.6l0-0.3c-0.3,0-0.6,0-0.9,0l0,0.3l0.2,0l0.3,0c0.1,0,0.2,0,0.2,0l0.1,0C7,21.6,7,21.6,7,21.6"/>
			<path class="st26" d="M8.5,21.3l-0.1-0.3c-0.2,0-0.3,0.1-0.5,0.1c-0.2,0-0.3,0.1-0.5,0.1l0.1,0.3c0.2,0,0.3-0.1,0.5-0.1
				C8.2,21.3,8.3,21.3,8.5,21.3"/>
			<path class="st26" d="M9.8,20.8l-0.1-0.3c-0.3,0.1-0.6,0.2-0.9,0.3l0.1,0.3C9.2,21,9.5,20.9,9.8,20.8"/>
			<path class="st26" d="M11.2,20.2L11,19.9c-0.3,0.1-0.6,0.2-0.9,0.4l0.1,0.3C10.6,20.5,10.9,20.4,11.2,20.2"/>
			<path class="st26" d="M12.5,19.7l-0.2-0.3c-0.3,0.1-0.6,0.3-0.9,0.4l0.1,0.3C11.9,19.9,12.2,19.8,12.5,19.7"/>
			<path class="st26" d="M13.7,18.9l-0.2-0.3c-0.3,0.2-0.5,0.3-0.8,0.5l0.2,0.3C13.2,19.3,13.5,19.1,13.7,18.9"/>
		</g>
	</g>
	<g class="st2">
		<g>
			<defs>
				
					<rect id="SVGID_1852_" x="3.6" y="13.7" transform="matrix(0.9641 -0.2656 0.2656 0.9641 -3.7955 3.4567)" width="14.6" height="4.2"/>
			</defs>
			<clipPath id="SVGID_26_">
				<use xlink:href="#SVGID_1852_"  style="overflow:visible;"/>
			</clipPath>
			<path class="st27" d="M4.7,19.1l0.1-0.3c-0.2-0.1-0.4-0.3-0.5-0.5l-0.1,0.3C4.2,18.8,4.4,19,4.7,19.1"/>
			<path class="st27" d="M5.8,19.2l0-0.3c-0.2,0-0.5,0-0.7,0l0,0.3C5.3,19.2,5.6,19.3,5.8,19.2"/>
			<path class="st27" d="M7,19l-0.1-0.3l-0.4,0.1l-0.4,0.1l0.1,0.3c0.1,0,0.3-0.1,0.4-0.1L7,19z"/>
			<path class="st27" d="M8.1,18.6l-0.1-0.3c-0.1,0.1-0.2,0.1-0.3,0.1c-0.1,0-0.2,0.1-0.3,0.1l0.1,0.3c0.1,0,0.2-0.1,0.4-0.1
				C7.8,18.7,8,18.6,8.1,18.6"/>
			<path class="st27" d="M9.1,18l-0.2-0.3c-0.2,0.1-0.4,0.2-0.7,0.4l0.2,0.3C8.6,18.3,8.9,18.2,9.1,18"/>
			<path class="st27" d="M10.1,17.5l-0.2-0.3c-0.2,0.1-0.4,0.3-0.7,0.4l0.2,0.3C9.6,17.7,9.9,17.6,10.1,17.5"/>
			<path class="st27" d="M11,16.9l-0.2-0.3c-0.2,0.1-0.4,0.3-0.6,0.4l0.2,0.3C10.6,17.1,10.8,17,11,16.9"/>
			
				<rect x="11.2" y="16.1" transform="matrix(0.8311 -0.5561 0.5561 0.8311 -7.1054 9.187)" class="st27" width="0.8" height="0.3"/>
			<polygon class="st27" points="12.9,15.6 12.7,15.3 12.1,15.7 12.3,16 			"/>
			<polygon class="st27" points="13.8,14.9 13.6,14.6 13,15.1 13.2,15.4 			"/>
			<polygon class="st27" points="14.8,14.2 14.6,14 14,14.4 14.2,14.7 			"/>
			<polygon class="st27" points="15.7,13.6 15.5,13.3 14.9,13.7 15.1,14 			"/>
			<path class="st27" d="M16.6,12.9l-0.2-0.3c-0.2,0.2-0.4,0.3-0.6,0.5l0.2,0.3C16.2,13.2,16.4,13,16.6,12.9"/>
			<path class="st27" d="M17.5,12.1l-0.2-0.3c-0.2,0.2-0.4,0.3-0.6,0.5l0.2,0.3C17.1,12.5,17.3,12.3,17.5,12.1"/>
		</g>
	</g>
	<g class="st2">
		<g>
			<defs>
				
					<rect id="SVGID_1854_" x="17.4" y="9.1" transform="matrix(0.9641 -0.2656 0.2656 0.9641 -1.8786 6.8234)" width="13.8" height="2.6"/>
			</defs>
			<clipPath id="SVGID_27_">
				<use xlink:href="#SVGID_1854_"  style="overflow:visible;"/>
			</clipPath>
			<path class="st28" d="M18.3,11.5l-0.2-0.3l-0.2,0.1c0,0-0.1,0.1-0.1,0.1l-0.3,0.2l0.2,0.3l0.3-0.2c0,0,0.1-0.1,0.1-0.1L18.3,11.5
				z"/>
			<path class="st28" d="M19.2,11L19,10.7c-0.2,0.1-0.4,0.2-0.6,0.3l0.2,0.3C18.8,11.2,18.9,11.1,19.2,11"/>
			<path class="st28" d="M20.1,10.6L20,10.3c-0.2,0.1-0.4,0.2-0.6,0.3l0.1,0.3C19.7,10.8,19.9,10.7,20.1,10.6"/>
			<path class="st28" d="M21,10.3l-0.1-0.3c-0.2,0.1-0.4,0.2-0.7,0.2l0.1,0.3C20.6,10.4,20.8,10.3,21,10.3"/>
			<path class="st28" d="M22,10l-0.1-0.3c-0.2,0.1-0.4,0.1-0.7,0.2l0.1,0.3C21.6,10.1,21.8,10,22,10"/>
			<polygon class="st28" points="23,9.7 22.9,9.4 22.3,9.6 22.3,9.9 			"/>
			<path class="st28" d="M24,9.6L24,9.2c-0.2,0-0.5,0.1-0.7,0.1l0.1,0.3C23.6,9.6,23.8,9.6,24,9.6"/>
			<path class="st28" d="M25,9.4l0-0.3c-0.2,0-0.5,0-0.7,0.1l0,0.3C24.6,9.5,24.8,9.5,25,9.4"/>
			<polygon class="st28" points="26,9.3 26,9 25.3,9 25.4,9.4 			"/>
			<polygon class="st28" points="27.1,9.3 27.1,9 26.9,9 26.7,9 26.4,9 26.4,9.3 26.7,9.3 26.9,9.3 			"/>
			<path class="st28" d="M28.1,9.4l0-0.3c-0.2,0-0.5,0-0.7,0l0,0.3C27.6,9.3,27.9,9.3,28.1,9.4"/>
			<path class="st28" d="M29.1,9.5l0-0.3c-0.2,0-0.5-0.1-0.7-0.1l0,0.3C28.6,9.4,28.9,9.4,29.1,9.5"/>
			<path class="st28" d="M30.1,9.6l0.1-0.3c-0.2,0-0.5-0.1-0.7-0.1l0,0.3C29.7,9.5,29.9,9.6,30.1,9.6"/>
			<path class="st28" d="M31.1,9.8l0.1-0.3c-0.2-0.1-0.5-0.1-0.7-0.2l-0.1,0.3C30.7,9.7,30.9,9.8,31.1,9.8"/>
		</g>
	</g>
	<g class="st2">
		<g>
			<defs>
				
					<rect id="SVGID_1856_" x="55.5" y="17.9" transform="matrix(0.9641 -0.2656 0.2656 0.9641 -4.1505 16.0664)" width="3.7" height="10.9"/>
			</defs>
			<clipPath id="SVGID_28_">
				<use xlink:href="#SVGID_1856_"  style="overflow:visible;"/>
			</clipPath>
			<path class="st29" d="M57.5,27.7l-0.3,0.2c0.1,0.2,0.2,0.3,0.3,0.5l0.4,0.5l0.3-0.2l-0.4-0.5C57.7,28,57.6,27.9,57.5,27.7"/>
			<path class="st29" d="M56.6,26.1l-0.3,0.1c0.1,0.2,0.2,0.4,0.3,0.6c0.1,0.2,0.2,0.4,0.3,0.5l0.3-0.2c-0.1-0.2-0.2-0.3-0.3-0.5
				C56.8,26.5,56.7,26.3,56.6,26.1"/>
			<path class="st29" d="M56,24.4l-0.3,0.1l0.1,0.3c0,0.1,0.1,0.2,0.1,0.3c0.1,0.2,0.1,0.4,0.2,0.6l0.3-0.1
				c-0.1-0.2-0.1-0.4-0.2-0.6c0-0.1-0.1-0.2-0.1-0.3L56,24.4z"/>
			<path class="st29" d="M55.8,22.7l-0.3,0c0,0.4,0,0.8,0.1,1.2l0.3-0.1C55.9,23.5,55.8,23.1,55.8,22.7"/>
			<path class="st29" d="M56.1,20.9l-0.3-0.1c-0.1,0.4-0.2,0.8-0.2,1.2l0.3,0C55.9,21.7,56,21.3,56.1,20.9"/>
			<path class="st29" d="M56.7,19.3l-0.3-0.2c-0.2,0.4-0.4,0.7-0.5,1.1l0.3,0.1C56.4,20,56.5,19.7,56.7,19.3"/>
			<path class="st29" d="M57.8,17.9l-0.2-0.2c-0.3,0.3-0.6,0.6-0.8,1l0.3,0.2C57.2,18.5,57.5,18.2,57.8,17.9"/>
		</g>
	</g>
	<g class="st2">
		<g>
			<defs>
				
					<rect id="SVGID_1858_" x="17.9" y="20.4" transform="matrix(0.9641 -0.2656 0.2656 0.9641 -5.5104 7.2931)" width="12.7" height="7.3"/>
			</defs>
			<clipPath id="SVGID_29_">
				<use xlink:href="#SVGID_1858_"  style="overflow:visible;"/>
			</clipPath>
			<path class="st30" d="M17.8,22.8l0.2-0.3c-0.2-0.1-0.4-0.3-0.6-0.4l-0.2,0.3C17.4,22.5,17.6,22.7,17.8,22.8"/>
			<path class="st30" d="M18.7,23.4l0.2-0.3c-0.2-0.1-0.4-0.3-0.6-0.4L18.1,23C18.3,23.2,18.5,23.3,18.7,23.4"/>
			<path class="st30" d="M19.7,24l0.2-0.3c-0.2-0.1-0.4-0.2-0.6-0.4L19,23.6C19.2,23.7,19.5,23.8,19.7,24"/>
			<path class="st30" d="M20.7,24.4l0.1-0.3c-0.2-0.1-0.4-0.2-0.6-0.3L20,24.1C20.2,24.2,20.4,24.3,20.7,24.4"/>
			<path class="st30" d="M21.7,24.9l0.1-0.3c-0.2-0.1-0.4-0.2-0.7-0.3L21,24.6C21.2,24.7,21.4,24.8,21.7,24.9"/>
			<path class="st30" d="M22.7,25.3l0.1-0.3c-0.2-0.1-0.5-0.2-0.7-0.3L22,25C22.2,25.1,22.4,25.2,22.7,25.3"/>
			<path class="st30" d="M23.7,25.7l0.1-0.3c-0.2-0.1-0.5-0.1-0.7-0.2L23,25.4C23.2,25.5,23.5,25.6,23.7,25.7"/>
			<path class="st30" d="M24.8,26l0.1-0.3c-0.2-0.1-0.5-0.1-0.7-0.2l-0.1,0.3C24.3,25.8,24.5,25.9,24.8,26"/>
			<path class="st30" d="M25.8,26.2l0.1-0.3c-0.2,0-0.5-0.1-0.7-0.1L25.1,26C25.4,26.1,25.6,26.1,25.8,26.2"/>
			<polygon class="st30" points="26.9,26.3 27,26 26.6,25.9 26.2,25.9 26.2,26.2 26.6,26.3 			"/>
			<path class="st30" d="M28,26.4l0-0.3c-0.2,0-0.5,0-0.7,0l0,0.3C27.5,26.4,27.8,26.4,28,26.4"/>
			<path class="st30" d="M29.1,26.3l0-0.3c-0.2,0-0.5,0.1-0.7,0.1l0,0.3C28.6,26.3,28.9,26.3,29.1,26.3"/>
			<path class="st30" d="M30.2,26.1l-0.1-0.3c-0.2,0-0.5,0.1-0.7,0.1l0,0.3C29.7,26.2,30,26.1,30.2,26.1"/>
			<path class="st30" d="M31.3,25.9l-0.1-0.3c-0.2,0.1-0.5,0.1-0.7,0.2l0.1,0.3C30.8,26,31,25.9,31.3,25.9"/>
		</g>
	</g>
	<g class="st2">
		<g>
			<defs>
				
					<rect id="SVGID_1860_" x="5.2" y="13.3" transform="matrix(0.9641 -0.2656 0.2656 0.9641 -4.5252 3.4828)" width="10.8" height="10.4"/>
			</defs>
			<clipPath id="SVGID_30_">
				<use xlink:href="#SVGID_1860_"  style="overflow:visible;"/>
			</clipPath>
			<path class="st31" d="M4.7,15.1l0-0.3c-0.1,0-0.2,0.1-0.3,0.2c-0.1,0.1-0.2,0.2-0.2,0.3l0.1,0.3c0.1-0.1,0.1-0.2,0.2-0.3
				C4.5,15.1,4.6,15.1,4.7,15.1"/>
			<path class="st31" d="M5.8,15.1l0.1-0.3l-0.2,0c-0.1,0-0.1,0-0.2,0c-0.1,0-0.1,0-0.2,0c-0.1,0-0.1,0-0.2,0l0,0.3
				c0.1,0,0.1,0,0.2,0c0.1,0,0.1,0,0.2,0c0.1,0,0.1,0,0.2,0L5.8,15.1z"/>
			<path class="st31" d="M6.8,15.4l0.1-0.3c-0.2-0.1-0.5-0.2-0.7-0.2l-0.1,0.3C6.4,15.2,6.6,15.3,6.8,15.4"/>
			<path class="st31" d="M7.8,15.8L8,15.5c-0.2-0.1-0.5-0.2-0.7-0.3l-0.1,0.3C7.4,15.6,7.6,15.7,7.8,15.8"/>
			<path class="st31" d="M8.8,16.4L9,16.1c-0.2-0.1-0.4-0.2-0.7-0.4L8.1,16C8.4,16.1,8.6,16.2,8.8,16.4"/>
			<path class="st31" d="M9.7,16.9l0.2-0.3c-0.2-0.1-0.4-0.3-0.6-0.4l-0.2,0.3C9.3,16.7,9.5,16.8,9.7,16.9"/>
			<path class="st31" d="M10.7,17.5l0.2-0.3c-0.2-0.1-0.4-0.3-0.6-0.4L10,17.1C10.3,17.3,10.5,17.4,10.7,17.5"/>
			<polygon class="st31" points="11.6,18.1 11.8,17.9 11.2,17.4 11,17.7 			"/>
			<polygon class="st31" points="12.5,18.8 12.7,18.5 12.1,18.1 11.9,18.3 			"/>
			<polygon class="st31" points="13.4,19.4 13.6,19.1 13,18.7 12.8,19 			"/>
			<polygon class="st31" points="14.3,20.1 14.5,19.8 13.9,19.4 13.7,19.6 			"/>
			<polygon class="st31" points="15.2,20.7 15.4,20.5 14.8,20 14.6,20.3 			"/>
			<path class="st31" d="M16.1,21.4l0.2-0.3c-0.2-0.2-0.4-0.3-0.6-0.5L15.5,21C15.7,21.1,15.9,21.3,16.1,21.4"/>
			<path class="st31" d="M16.9,22.1l0.2-0.3c-0.2-0.2-0.4-0.3-0.6-0.5l-0.2,0.3C16.5,21.8,16.7,22,16.9,22.1"/>
		</g>
	</g>
	<g class="st2">
		<g>
			<defs>
				
					<rect id="SVGID_1862_" x="4.8" y="11.6" transform="matrix(0.9641 -0.2656 0.2656 0.9641 -3.3995 2.864)" width="8.1" height="4.8"/>
			</defs>
			<clipPath id="SVGID_31_">
				<use xlink:href="#SVGID_1862_"  style="overflow:visible;"/>
			</clipPath>
			<path class="st32" d="M5.3,12.9l-0.1-0.3c-0.2,0.1-0.3,0.1-0.4,0.2c-0.1,0.1-0.2,0.2-0.3,0.4l0.1,0.3c0.1-0.1,0.2-0.3,0.3-0.4
				C5,13,5.1,12.9,5.3,12.9"/>
			<path class="st32" d="M6.6,12.7l0-0.3c-0.3,0-0.7-0.1-1,0l0,0.3C6,12.7,6.3,12.7,6.6,12.7"/>
			<path class="st32" d="M8,13.1l0.1-0.3c-0.2,0-0.3-0.1-0.5-0.1c-0.2,0-0.3-0.1-0.5-0.1l-0.1,0.3c0.2,0,0.3,0.1,0.5,0.1
				C7.7,13,7.8,13,8,13.1"/>
			<path class="st32" d="M9.3,13.5l0.1-0.3c-0.3-0.1-0.6-0.2-0.9-0.3l-0.1,0.3C8.7,13.3,9,13.4,9.3,13.5"/>
			<path class="st32" d="M10.7,14l0.1-0.3c-0.3-0.1-0.6-0.2-0.9-0.4l-0.1,0.3C10.1,13.8,10.4,13.9,10.7,14"/>
			<path class="st32" d="M11.9,14.6l0.1-0.3c-0.3-0.1-0.6-0.3-0.9-0.4l-0.1,0.3C11.4,14.4,11.7,14.5,11.9,14.6"/>
			<path class="st32" d="M13.2,15.3l0.2-0.3c-0.3-0.2-0.6-0.3-0.9-0.5l-0.2,0.3C12.6,15,12.9,15.1,13.2,15.3"/>
		</g>
	</g>
	<g class="st2">
		<g>
			<defs>
				
					<rect id="SVGID_1864_" x="6.8" y="8.7" transform="matrix(0.9641 -0.2656 0.2656 0.9641 -2.7963 3.4948)" width="9.4" height="6.8"/>
			</defs>
			<clipPath id="SVGID_32_">
				<use xlink:href="#SVGID_1864_"  style="overflow:visible;"/>
			</clipPath>
			<path class="st33" d="M6.9,10.2L6.8,9.9c-0.2,0.1-0.4,0.2-0.6,0.3l0.2,0.3C6.5,10.4,6.7,10.3,6.9,10.2"/>
			<path class="st33" d="M7.8,10l0-0.3c-0.1,0-0.2,0-0.3,0.1c-0.1,0-0.2,0-0.3,0.1l0.1,0.3c0.1,0,0.2,0,0.3-0.1
				C7.6,10.1,7.7,10,7.8,10"/>
			<path class="st33" d="M8.7,10l0-0.3c-0.1,0-0.2,0-0.3,0c-0.1,0-0.2,0-0.3,0l0,0.3c0.1,0,0.2,0,0.3,0C8.5,10,8.6,10,8.7,10"/>
			<polygon class="st33" points="9.7,10 9.7,9.7 9.4,9.7 9.1,9.6 9.1,10 9.4,10 			"/>
			<path class="st33" d="M10.7,10.2l0.1-0.3c-0.2,0-0.4-0.1-0.7-0.1l0,0.3C10.2,10.1,10.5,10.1,10.7,10.2"/>
			<path class="st33" d="M11.6,10.4l0.1-0.3c-0.2-0.1-0.4-0.1-0.6-0.2L11,10.3C11.2,10.3,11.4,10.4,11.6,10.4"/>
			<polygon class="st33" points="12.6,10.7 12.7,10.4 12,10.2 11.9,10.5 			"/>
			<path class="st33" d="M13.5,11l0.1-0.3c-0.2-0.1-0.4-0.1-0.6-0.2l-0.1,0.3C13.1,10.8,13.3,10.9,13.5,11"/>
			<path class="st33" d="M14.4,11.3l0.1-0.3c-0.2-0.1-0.4-0.2-0.6-0.2l-0.1,0.3C14,11.1,14.2,11.2,14.4,11.3"/>
			<path class="st33" d="M15.3,11.7l0.2-0.3c-0.2-0.1-0.4-0.2-0.6-0.3l-0.1,0.3C14.9,11.5,15.1,11.6,15.3,11.7"/>
			<path class="st33" d="M16,12.3l0.3-0.2c-0.2-0.2-0.3-0.4-0.5-0.5l-0.2,0.3C15.7,12,15.9,12.1,16,12.3"/>
			<path class="st33" d="M16.2,13.1l0.3,0.1c0.1-0.2,0-0.5-0.1-0.8l-0.3,0.1C16.2,12.7,16.2,12.9,16.2,13.1"/>
			<path class="st33" d="M15.7,13.8l0.2,0.3c0.2-0.2,0.3-0.3,0.5-0.6l-0.3-0.2C16,13.5,15.9,13.6,15.7,13.8"/>
			<path class="st33" d="M14.9,14.3l0.2,0.3c0.2-0.1,0.4-0.2,0.6-0.4L15.5,14C15.3,14.1,15.1,14.2,14.9,14.3"/>
		</g>
	</g>
	<g class="st2">
		<g>
			<defs>
				
					<rect id="SVGID_1866_" x="11.8" y="4.9" transform="matrix(0.9641 -0.2656 0.2656 0.9641 -2.0446 4.135)" width="5" height="9.5"/>
			</defs>
			<clipPath id="SVGID_33_">
				<use xlink:href="#SVGID_1866_"  style="overflow:visible;"/>
			</clipPath>
			<path class="st34" d="M11.8,6.3L11.9,6c-0.4-0.2-0.8-0.3-1.2-0.3L10.7,6C11,6,11.4,6.1,11.8,6.3"/>
			<path class="st34" d="M13.2,7.3L13.4,7c-0.3-0.3-0.6-0.5-1-0.7l-0.2,0.3C12.6,6.8,12.9,7,13.2,7.3"/>
			<path class="st34" d="M14.4,8.5l0.2-0.2c-0.3-0.3-0.6-0.6-0.9-0.8l-0.2,0.3C13.9,7.9,14.2,8.2,14.4,8.5"/>
			<path class="st34" d="M15.6,9.8l0.3-0.2c-0.3-0.3-0.5-0.6-0.8-0.9l-0.2,0.2C15.1,9.2,15.4,9.5,15.6,9.8"/>
			<path class="st34" d="M16.7,11.1L17,11c-0.2-0.3-0.5-0.7-0.7-1L16,10.2C16.2,10.5,16.5,10.8,16.7,11.1"/>
			<path class="st34" d="M17.3,12.7l0.3,0c0-0.2-0.1-0.4-0.2-0.6c-0.1-0.2-0.2-0.4-0.3-0.6L17,11.6c0.1,0.2,0.2,0.3,0.2,0.5
				C17.3,12.3,17.3,12.5,17.3,12.7"/>
			<path class="st34" d="M16.3,13.6l0.1,0.3c0.1,0,0.2,0,0.3-0.1c0.1,0,0.2-0.1,0.3-0.2c0.1-0.1,0.2-0.1,0.2-0.2l0.1-0.1
				c0,0,0,0,0.1-0.1c0,0,0,0,0.1-0.1l-0.3-0.2c0,0,0,0,0,0c0,0,0,0,0,0L17,13.3c-0.1,0.1-0.1,0.1-0.2,0.2
				C16.7,13.5,16.5,13.6,16.3,13.6"/>
		</g>
	</g>
	<g class="st2">
		<g>
			<defs>
				
					<rect id="SVGID_1868_" x="51.7" y="7.6" transform="matrix(0.9641 -0.2656 0.2656 0.9641 -0.7047 15.4541)" width="10.2" height="5.4"/>
			</defs>
			<clipPath id="SVGID_34_">
				<use xlink:href="#SVGID_1868_"  style="overflow:visible;"/>
			</clipPath>
			<path class="st35" d="M60,7l0,0.3c0.2,0,0.4,0.1,0.6,0.1c0.2,0.1,0.4,0.1,0.6,0.2l0.1-0.3c-0.2-0.1-0.4-0.2-0.6-0.2
				C60.4,7.1,60.2,7,60,7"/>
			<path class="st35" d="M58,7.2l0.1,0.3c0.4-0.1,0.8-0.2,1.2-0.2l0-0.3C58.9,7,58.5,7.1,58,7.2"/>
			<path class="st35" d="M56.2,7.8l0.1,0.3c0.4-0.2,0.8-0.3,1.2-0.5l-0.1-0.3C57,7.5,56.6,7.6,56.2,7.8"/>
			<path class="st35" d="M54.5,8.9l0.2,0.3c0.3-0.3,0.7-0.5,1-0.7l-0.2-0.3C55.3,8.3,54.9,8.6,54.5,8.9"/>
			<path class="st35" d="M53.4,10.5l0.3,0.2c0-0.1,0.1-0.2,0.2-0.3c0.1-0.1,0.1-0.2,0.2-0.3c0.1-0.1,0.1-0.2,0.2-0.3
				c0.1-0.1,0.1-0.2,0.2-0.3l-0.3-0.2C54,9.4,54,9.5,53.9,9.6c-0.1,0.1-0.1,0.2-0.2,0.3c-0.1,0.1-0.1,0.2-0.2,0.3
				C53.5,10.3,53.4,10.4,53.4,10.5"/>
			<path class="st35" d="M52.6,12.3l0.3,0.1c0.1-0.4,0.3-0.8,0.5-1.2l-0.3-0.1C52.9,11.5,52.8,11.9,52.6,12.3"/>
			<path class="st35" d="M52.6,14.3l0.3-0.1c0-0.1-0.1-0.2-0.1-0.3c0,0,0-0.1,0-0.1c0,0,0,0,0-0.1l0-0.1l0-0.1c0,0,0-0.1,0-0.2
				c0-0.1,0-0.1,0-0.2l0-0.2l-0.3-0.1l0,0.2c0,0.1,0,0.1,0,0.2c0,0.1,0,0.1,0,0.2l0,0.2l0,0.1c0,0.1,0,0.1,0,0.1
				c0,0.1,0,0.1,0.1,0.2C52.5,14.1,52.6,14.2,52.6,14.3"/>
		</g>
	</g>
	<g class="st2">
		<g>
			<defs>
				
					<rect id="SVGID_1870_" x="25.4" y="10.1" transform="matrix(0.9641 -0.2656 0.2656 0.9641 -1.9004 9.2296)" width="15.5" height="3.1"/>
			</defs>
			<clipPath id="SVGID_35_">
				<use xlink:href="#SVGID_1870_"  style="overflow:visible;"/>
			</clipPath>
			<path class="st36" d="M39.7,9.4l0,0.3c0.3,0,0.6-0.1,0.8-0.1l0-0.3C40.3,9.3,40,9.3,39.7,9.4"/>
			<polygon class="st36" points="38.5,9.6 38.5,9.9 39.3,9.8 39.3,9.4 			"/>
			
				<rect x="37.2" y="9.7" transform="matrix(0.9877 -0.1561 0.1561 0.9877 -1.0757 5.9971)" class="st36" width="0.8" height="0.3"/>
			<path class="st36" d="M36,9.9l0.1,0.3c0.3-0.1,0.6-0.1,0.8-0.1l-0.1-0.3C36.5,9.9,36.2,9.9,36,9.9"/>
			<path class="st36" d="M34.7,10.2l0.1,0.3c0.3-0.1,0.6-0.1,0.8-0.2L35.5,10C35.3,10.1,35,10.1,34.7,10.2"/>
			<path class="st36" d="M33.5,10.4l0.1,0.3c0.3,0,0.6-0.1,0.8-0.1l-0.1-0.3C34,10.3,33.8,10.4,33.5,10.4"/>
			<rect x="32.3" y="10.6" transform="matrix(0.987 -0.1607 0.1607 0.987 -1.3002 5.3922)" class="st36" width="0.8" height="0.3"/>
			<rect x="31" y="10.8" transform="matrix(0.9862 -0.1655 0.1655 0.9862 -1.3765 5.3559)" class="st36" width="0.8" height="0.3"/>
			<path class="st36" d="M29.8,11.1l0.1,0.3c0.3-0.1,0.6-0.1,0.8-0.2l-0.1-0.3C30.3,11,30,11,29.8,11.1"/>
			<path class="st36" d="M28.5,11.3l0.1,0.3c0.3-0.1,0.5-0.1,0.8-0.2l-0.1-0.3C29.1,11.2,28.8,11.3,28.5,11.3"/>
			<path class="st36" d="M27.3,11.8l0.1,0.3c0.2-0.1,0.5-0.2,0.8-0.3l-0.1-0.3C27.8,11.5,27.6,11.6,27.3,11.8"/>
			<path class="st36" d="M26.2,12.6l0.3,0.2c0.2-0.2,0.4-0.4,0.6-0.5L26.9,12C26.7,12.1,26.4,12.3,26.2,12.6"/>
			<path class="st36" d="M25.8,13.9l0.3,0c0-0.3,0-0.5,0.1-0.8L26,12.9C25.9,13.2,25.8,13.6,25.8,13.9"/>
			<path class="st36" d="M26.3,15.1l0.3-0.2c-0.1-0.2-0.3-0.5-0.3-0.7l-0.3,0.1C26,14.6,26.1,14.9,26.3,15.1"/>
		</g>
	</g>
	<g class="st37">
		<g>
			<defs>
				
					<rect id="SVGID_1872_" x="4.6" y="-0.6" transform="matrix(0.9641 -0.2656 0.2656 0.9641 -3.2493 9.959)" width="61.1" height="35.2"/>
			</defs>
			<clipPath id="SVGID_36_">
				<use xlink:href="#SVGID_1872_"  style="overflow:visible;"/>
			</clipPath>
			<g class="st38">
				<defs>
					<path id="SVGID_1874_" d="M60.5,6.3c-5.7-4.6-14.9,3.4-25.4,3.5c0,0,0,0,0,0c-10.4,0-19.7-8.1-25.4-3.5C6,9.3,3.8,13,3.9,16.9
						c0,3.5,1.8,6.8,4.8,9.6c0.4,0.4,0.8,0.7,1.2,1.1c5.7,4.6,14.8-1.9,25.2-1.9c0,0,0,0,0,0c10.4,0,19.8,6.5,25.5,1.9
						c0.4-0.3,0.8-0.7,1.2-1.1c3-2.8,4.7-6.1,4.7-9.6C66.5,13,64.3,9.3,60.5,6.3"/>
				</defs>
				<clipPath id="SVGID_37_">
					<use xlink:href="#SVGID_1874_"  style="overflow:visible;"/>
				</clipPath>
			</g>
			<g class="st38">
				<defs>
					<path id="SVGID_1877_" d="M60.5,6.3c-5.7-4.6-14.9,3.4-25.4,3.5c0,0,0,0,0,0c-10.4,0-19.7-8.1-25.4-3.5C6,9.3,3.8,13,3.9,16.9
						c0,3.5,1.8,6.8,4.8,9.6c0.4,0.4,0.8,0.7,1.2,1.1c5.7,4.6,14.8-1.9,25.2-1.9c0,0,0,0,0,0c10.4,0,19.8,6.5,25.5,1.9
						c0.4-0.3,0.8-0.7,1.2-1.1c3-2.8,4.7-6.1,4.7-9.6C66.5,13,64.3,9.3,60.5,6.3"/>
				</defs>
				<clipPath id="SVGID_38_">
					<use xlink:href="#SVGID_1877_"  style="overflow:visible;"/>
				</clipPath>
			</g>
		</g>
	</g>
	<path class="st39" d="M43.4,17.5c0-1.9,3.1-3.4,6.9-3.4c3.8,0,6.9,1.5,6.9,3.4c0,1.9-3.1,3.4-6.9,3.4
		C46.5,20.9,43.4,19.3,43.4,17.5"/>
	<path class="st39" d="M13.4,16.9c0-1.9,3.1-3.4,6.9-3.4c3.8,0,6.9,1.5,6.9,3.4c0,1.9-3.1,3.4-6.9,3.4
		C16.5,20.3,13.4,18.8,13.4,16.9"/>
	<path class="st40" d="M53.7,20.8c0.5-0.1,1,0.7,1.2,1.6c0.4,1.8-0.1,5.1-1.7,6c-0.4,0.2-0.8,0.3-1.1,0.3"/>
	<path class="st40" d="M50.5,21.2c1.3,0.8,1.4,3.1,0.5,4.6c-0.8,1.4-2.5,2.4-3.9,1.6"/>
	<defs>
		<filter id="Adobe_OpacityMaskFilter" filterUnits="userSpaceOnUse" x="55.6" y="19.5" width="7" height="7.2">
			<feColorMatrix  type="matrix" values="1 0 0 0 0  0 1 0 0 0  0 0 1 0 0  0 0 0 1 0"/>
		</filter>
	</defs>
	<mask maskUnits="userSpaceOnUse" x="55.6" y="19.5" width="7" height="7.2" id="SVGID_39_">
		<g class="st41">
			
				<linearGradient id="SVGID_40_" gradientUnits="userSpaceOnUse" x1="-1189.8442" y1="573.0115" x2="-1189.7502" y2="573.0115" gradientTransform="matrix(-75.629 0.1344 0.1344 75.629 -90000.7422 -43114.0938)">
				<stop  offset="0" style="stop-color:#D3D3D3"/>
				<stop  offset="4.926110e-03" style="stop-color:#D3D3D3"/>
				<stop  offset="8.804131e-02" style="stop-color:#E5E5E5"/>
				<stop  offset="0.1921" style="stop-color:#F4F4F4"/>
				<stop  offset="0.3164" style="stop-color:#FCFCFC"/>
				<stop  offset="0.5123" style="stop-color:#FFFFFF"/>
				<stop  offset="0.697" style="stop-color:#FCFCFC"/>
				<stop  offset="0.8185" style="stop-color:#F3F3F3"/>
				<stop  offset="0.9214" style="stop-color:#E5E5E5"/>
				<stop  offset="1" style="stop-color:#D3D3D3"/>
			</linearGradient>
			<polygon class="st42" points="88.6,135.7 -111.7,135.5 -112.3,-10.9 88,-10.7 			"/>
		</g>
	</mask>
	
		<linearGradient id="SVGID_41_" gradientUnits="userSpaceOnUse" x1="-1189.8412" y1="572.4938" x2="-1189.7472" y2="572.4938" gradientTransform="matrix(-75.629 0.1344 0.1344 75.629 -90000.7656 -43114.1016)">
		<stop  offset="0" style="stop-color:#BC2428"/>
		<stop  offset="4.926110e-03" style="stop-color:#BC2428"/>
		<stop  offset="7.210414e-02" style="stop-color:#BC2428"/>
		<stop  offset="0.5123" style="stop-color:#BC2428"/>
		<stop  offset="0.9375" style="stop-color:#BC2428"/>
		<stop  offset="1" style="stop-color:#BC2428"/>
	</linearGradient>
	<path class="st43" d="M55.6,19.8c0.1-0.1,0.3-0.2,0.5-0.3c0.9-0.2,2.3,0.5,2.8,0.8l0,0l0,0c1,0.8,3.2,2.5,3.7,4.2
		c0.2,0.8,0,1.7-1.1,2.2l-0.1-0.3c1-0.5,1.1-1.1,0.9-1.9c-0.4-1.5-2.6-3.3-3.6-4l0.1-0.1l-0.1,0.1c-0.5-0.3-1.9-1-2.6-0.8
		c-0.1,0-0.2,0.1-0.3,0.2L55.6,19.8L55.6,19.8z"/>
	<defs>
		<filter id="Adobe_OpacityMaskFilter_1_" filterUnits="userSpaceOnUse" x="56.9" y="16.2" width="4.3" height="2">
			<feColorMatrix  type="matrix" values="1 0 0 0 0  0 1 0 0 0  0 0 1 0 0  0 0 0 1 0"/>
		</filter>
	</defs>
	<mask maskUnits="userSpaceOnUse" x="56.9" y="16.2" width="4.3" height="2" id="SVGID_42_">
		<g class="st44">
			
				<linearGradient id="SVGID_43_" gradientUnits="userSpaceOnUse" x1="-1169.8011" y1="526.0768" x2="-1169.7074" y2="526.0768" gradientTransform="matrix(44.5764 -4.5223 -3.9216 -38.6714 54269.4961 15108.9463)">
				<stop  offset="0" style="stop-color:#CCCCCC"/>
				<stop  offset="0.33" style="stop-color:#FFFFFF"/>
				<stop  offset="1" style="stop-color:#FFFFFF"/>
			</linearGradient>
			<polygon class="st45" points="-115.2,6.9 78.1,-12.4 91.5,117.9 -101.8,137.2 			"/>
		</g>
	</mask>
	
		<linearGradient id="SVGID_44_" gradientUnits="userSpaceOnUse" x1="-1169.8043" y1="527.0499" x2="-1169.7106" y2="527.0499" gradientTransform="matrix(44.5763 -4.5223 -3.9216 -38.6714 54269.4453 15108.9717)">
		<stop  offset="0" style="stop-color:#BC2428"/>
		<stop  offset="0.33" style="stop-color:#BC2428"/>
		<stop  offset="1" style="stop-color:#BC2428"/>
	</linearGradient>
	<path class="st46" d="M61.2,18.2c-0.8,0-1.8-0.4-2.3-0.5l0,0l0,0c-0.5-0.3-1.3-0.7-2-1.3l0.2-0.2c0.7,0.5,1.5,1,2,1.2L59,17.5
		l0.1-0.1c0.4,0.2,1.4,0.5,2.2,0.5L61.2,18.2L61.2,18.2z"/>
	<path class="st47" d="M47,20.7c0.4,0.2,0.8,0.3,1,0.7c0.8,1.4-0.6,3.2-2.7,4.5c-0.7,0.4-2.1,0.7-4.2,0.3"/>
	<defs>
		<filter id="Adobe_OpacityMaskFilter_2_" filterUnits="userSpaceOnUse" x="44.5" y="5.3" width="15.2" height="8.1">
			<feColorMatrix  type="matrix" values="1 0 0 0 0  0 1 0 0 0  0 0 1 0 0  0 0 0 1 0"/>
		</filter>
	</defs>
	<mask maskUnits="userSpaceOnUse" x="44.5" y="5.3" width="15.2" height="8.1" id="SVGID_45_">
		<g class="st48">
			
				<linearGradient id="SVGID_46_" gradientUnits="userSpaceOnUse" x1="-1188.2391" y1="568.526" x2="-1188.1451" y2="568.526" gradientTransform="matrix(-148.3937 4.1046 -30.5798 124.4269 -158894.8438 -65801.9688)">
				<stop  offset="0" style="stop-color:#CCCCCC"/>
				<stop  offset="0.33" style="stop-color:#FFFFFF"/>
				<stop  offset="1" style="stop-color:#FFFFFF"/>
			</linearGradient>
			<polygon class="st49" points="77.9,131.4 -136.2,136.8 -101.6,-6.6 112.5,-12 			"/>
		</g>
	</mask>
	
		<linearGradient id="SVGID_47_" gradientUnits="userSpaceOnUse" x1="-1188.2362" y1="568.1108" x2="-1188.1426" y2="568.1108" gradientTransform="matrix(-148.3942 4.1047 -30.5797 124.4272 -158895.4375 -65801.9922)">
		<stop  offset="0" style="stop-color:#BC2428"/>
		<stop  offset="0.33" style="stop-color:#BC2428"/>
		<stop  offset="1" style="stop-color:#BC2428"/>
	</linearGradient>
	<path class="st50" d="M58.3,5.3c0.7,0.2,0.9,0.3,1.2,0.9c0,0.1,0.1,0.2,0.1,0.3c0.5,2-2.1,4.1-5.8,5.9c-0.2,0.1-0.5,0.2-0.9,0.3
		c-1.9,0.5-5.5,0.9-8.4,0.5l0-0.3c2.9,0.4,6.5,0,8.3-0.5c0.3-0.1,0.6-0.2,0.8-0.3c3.7-1.7,6.2-3.9,5.7-5.5c0-0.1-0.1-0.2-0.1-0.3
		c-0.2-0.5-0.4-0.5-1-0.7L58.3,5.3L58.3,5.3z"/>
	<g class="st2">
		<g>
			<defs>
				
					<rect id="SVGID_1897_" x="26.1" y="18.8" transform="matrix(0.9641 -0.2656 0.2656 0.9641 -4.0981 7.6668)" width="0.4" height="0.5"/>
			</defs>
			<clipPath id="SVGID_48_">
				<use xlink:href="#SVGID_1897_"  style="overflow:visible;"/>
			</clipPath>
			<polygon class="st51" points="26.3,19.2 26.1,19 26.1,19 26.3,19.2 			"/>
			<polygon class="st51" points="26.4,19.2 26.1,18.9 26.1,18.9 26.3,19.2 			"/>
			<polygon class="st51" points="26.4,19.1 26.2,18.9 26.1,18.9 26.4,19.2 			"/>
			<polygon class="st51" points="26.4,19.1 26.2,18.8 26.2,18.9 26.4,19.1 			"/>
			<polygon class="st51" points="26.5,19.1 26.2,18.8 26.2,18.8 26.4,19.1 			"/>
			<polygon class="st51" points="26.5,19 26.3,18.8 26.2,18.8 26.5,19.1 			"/>
			<polygon class="st51" points="26.5,19 26.3,18.7 26.3,18.8 26.5,19 			"/>
		</g>
	</g>
	<defs>
		<filter id="Adobe_OpacityMaskFilter_3_" filterUnits="userSpaceOnUse" x="61.1" y="17.9" width="4.8" height="3.1">
			<feColorMatrix  type="matrix" values="1 0 0 0 0  0 1 0 0 0  0 0 1 0 0  0 0 0 1 0"/>
		</filter>
	</defs>
	<mask maskUnits="userSpaceOnUse" x="61.1" y="17.9" width="4.8" height="3.1" id="SVGID_49_">
		<g class="st52">
			
				<linearGradient id="SVGID_50_" gradientUnits="userSpaceOnUse" x1="-1193.0417" y1="580.9112" x2="-1192.9479" y2="580.9112" gradientTransform="matrix(-51.1831 9.096525e-02 9.096525e-02 51.1831 -61050.1445 -29562.0332)">
				<stop  offset="0" style="stop-color:#CCCCCC"/>
				<stop  offset="0.33" style="stop-color:#FFFFFF"/>
				<stop  offset="1" style="stop-color:#FFFFFF"/>
			</linearGradient>
			<polygon class="st53" points="88.6,135.7 -111.7,135.5 -112.3,-10.9 88,-10.7 			"/>
		</g>
	</mask>
	
		<linearGradient id="SVGID_51_" gradientUnits="userSpaceOnUse" x1="-1193.0369" y1="580.0748" x2="-1192.943" y2="580.0748" gradientTransform="matrix(-51.1831 9.100214e-02 9.100214e-02 51.1831 -61050.207 -29562.0078)">
		<stop  offset="0" style="stop-color:#BC2428"/>
		<stop  offset="0.33" style="stop-color:#BC2428"/>
		<stop  offset="1" style="stop-color:#BC2428"/>
	</linearGradient>
	<path class="st54" d="M61.1,17.9c1.5-0.1,4.3,0.9,4.7,2.3c0.1,0.2,0.1,0.5,0,0.8l-0.3-0.1c0.1-0.2,0.1-0.4,0-0.6
		c-0.3-1.2-3-2.2-4.4-2.1L61.1,17.9L61.1,17.9z"/>
	<path class="st40" d="M29.7,17.3c-0.8-0.2-2,0.1-2.9,1.1"/>
	<path class="st40" d="M6.4,23.4c0,0.1,0.1,0.1,0.1,0.2"/>
	<path class="st40" d="M16,21.6c-3,2.5-5.8,5.6-5,6.5"/>
	<path class="st40" d="M6.6,23.6c-0.2-0.3-0.2-0.2-0.2-0.4c0-0.8,6.3-3,10.6-3"/>
	<path class="st40" d="M15.9,21.6c0.9-0.8,2-1.2,3-1.1"/>
	<path class="st47" d="M21,20.5c-1.1-0.4-2.6,1.1-3.3,3.3c-0.7,2.2-0.4,4.3,0.7,4.6c0.1,0,0.3,0.1,0.4,0"/>
	<path class="st40" d="M27.5,26.4c1.5,0,3.2-1.2,4-3.2c1-2.5,0-5.1-1.8-5.9"/>
	<path class="st55" d="M31.5,9.7c4.4,1.4,10.4,2.7,13.1,3.3"/>
	<g class="st2">
		<g>
			<defs>
				<path id="SVGID_1902_" d="M23.4,20.1"/>
			</defs>
			<clipPath id="SVGID_52_">
				<use xlink:href="#SVGID_1902_"  style="overflow:visible;"/>
			</clipPath>
		</g>
	</g>
	<g class="st2">
		<g>
			<defs>
				<path id="SVGID_1904_" d="M23.3,20"/>
			</defs>
			<clipPath id="SVGID_53_">
				<use xlink:href="#SVGID_1904_"  style="overflow:visible;"/>
			</clipPath>
		</g>
	</g>
	<g class="st2">
		<g>
			<defs>
				<path id="SVGID_1906_" d="M26.5,25.4"/>
			</defs>
			<clipPath id="SVGID_54_">
				<use xlink:href="#SVGID_1906_"  style="overflow:visible;"/>
			</clipPath>
		</g>
	</g>
	<g class="st2">
		<g>
			<defs>
				<path id="SVGID_1908_" d="M22.8,22.2"/>
			</defs>
			<clipPath id="SVGID_55_">
				<use xlink:href="#SVGID_1908_"  style="overflow:visible;"/>
			</clipPath>
		</g>
	</g>
	<g class="st2">
		<g>
			<defs>
				<path id="SVGID_1910_" d="M22,20.9"/>
			</defs>
			<clipPath id="SVGID_56_">
				<use xlink:href="#SVGID_1910_"  style="overflow:visible;"/>
			</clipPath>
		</g>
	</g>
	<g class="st2">
		<g>
			<defs>
				
					<rect id="SVGID_1912_" x="20.9" y="20.3" transform="matrix(0.9641 -0.2656 0.2656 0.9641 -4.7058 6.3849)" width="0.7" height="0.6"/>
			</defs>
			<clipPath id="SVGID_57_">
				<use xlink:href="#SVGID_1912_"  style="overflow:visible;"/>
			</clipPath>
			<path class="st56" d="M20.9,20.5c0.2,0,0.4,0.1,0.7,0.2"/>
		</g>
	</g>
	<path class="st40" d="M4.2,18.8C4.1,17.9,5,17.5,7.4,17c1.3-0.2,2.2-0.2,3.1-0.1"/>
	<defs>
		<filter id="Adobe_OpacityMaskFilter_4_" filterUnits="userSpaceOnUse" x="4.7" y="18.8" width="10.8" height="1.7">
			<feColorMatrix  type="matrix" values="1 0 0 0 0  0 1 0 0 0  0 0 1 0 0  0 0 0 1 0"/>
		</filter>
	</defs>
	<mask maskUnits="userSpaceOnUse" x="4.7" y="18.8" width="10.8" height="1.7" id="SVGID_58_">
		<g class="st57">
			
				<linearGradient id="SVGID_59_" gradientUnits="userSpaceOnUse" x1="-1192.9558" y1="568.6597" x2="-1192.8617" y2="568.6597" gradientTransform="matrix(-109.752 -18.5836 -15.1846 89.6832 -122286.5 -73102.9688)">
				<stop  offset="0" style="stop-color:#D3D3D3"/>
				<stop  offset="4.926110e-03" style="stop-color:#D3D3D3"/>
				<stop  offset="8.804131e-02" style="stop-color:#E5E5E5"/>
				<stop  offset="0.1921" style="stop-color:#F4F4F4"/>
				<stop  offset="0.3164" style="stop-color:#FCFCFC"/>
				<stop  offset="0.5123" style="stop-color:#FFFFFF"/>
				<stop  offset="0.697" style="stop-color:#FCFCFC"/>
				<stop  offset="0.8185" style="stop-color:#F3F3F3"/>
				<stop  offset="0.9214" style="stop-color:#E5E5E5"/>
				<stop  offset="1" style="stop-color:#D3D3D3"/>
			</linearGradient>
			<polygon class="st58" points="75.9,163.4 -127.2,128.2 -99.6,-38.6 103.5,-3.4 			"/>
		</g>
	</mask>
	
		<linearGradient id="SVGID_60_" gradientUnits="userSpaceOnUse" x1="-1192.9536" y1="568.1584" x2="-1192.8599" y2="568.1584" gradientTransform="matrix(-109.7522 -18.5836 -15.1846 89.6832 -122286.7031 -73102.8984)">
		<stop  offset="0" style="stop-color:#BC2428"/>
		<stop  offset="4.926110e-03" style="stop-color:#BC2428"/>
		<stop  offset="7.210414e-02" style="stop-color:#BC2428"/>
		<stop  offset="0.5123" style="stop-color:#BC2428"/>
		<stop  offset="0.9375" style="stop-color:#BC2428"/>
		<stop  offset="1" style="stop-color:#BC2428"/>
	</linearGradient>
	<path class="st59" d="M4.7,20.4c0.1-0.5,0.8-0.8,1.8-1.1c1.9-0.5,4.9-0.8,7-0.4c0.7,0.1,1.4,0.3,2,0.5l-0.1,0.3
		c-0.6-0.2-1.2-0.3-1.9-0.5c-2-0.4-5.1-0.1-6.9,0.4c-1,0.2-1.6,0.6-1.6,0.9L4.7,20.4L4.7,20.4z"/>
	<g class="st2">
		<g>
			<defs>
				
					<rect id="SVGID_1917_" x="13.6" y="18.2" transform="matrix(0.9641 -0.2656 0.2656 0.9641 -4.4126 4.3306)" width="0.5" height="0.5"/>
			</defs>
			<clipPath id="SVGID_61_">
				<use xlink:href="#SVGID_1917_"  style="overflow:visible;"/>
			</clipPath>
			<path class="st60" d="M13.8,18.3c0,0,0,0.1,0,0.1c0,0.1,0,0.2,0,0.3"/>
		</g>
	</g>
	<path class="st40" d="M10.2,16.9c1.5,0.2,3.1,0.7,3.4,1.2"/>
	<g class="st2">
		<g>
			<defs>
				
					<rect id="SVGID_1919_" x="51.7" y="5.5" transform="matrix(0.9641 -0.2656 0.2656 0.9641 -0.675 14.4986)" width="3.1" height="8.6"/>
			</defs>
			<clipPath id="SVGID_62_">
				<use xlink:href="#SVGID_1919_"  style="overflow:visible;"/>
			</clipPath>
			<path class="st61" d="M52.9,14.1c0.5,0.1,1.4-1.6,1.5-2.4c0.4-1.8-0.1-4.6-1.7-5.5C52.4,6,51.8,6,51.5,6"/>
		</g>
	</g>
	<g class="st2">
		<g>
			<defs>
				
					<rect id="SVGID_1921_" x="54" y="8.1" transform="matrix(0.9641 -0.2656 0.2656 0.9641 -0.8864 15.9104)" width="8.8" height="6.2"/>
			</defs>
			<clipPath id="SVGID_63_">
				<use xlink:href="#SVGID_1921_"  style="overflow:visible;"/>
			</clipPath>
			<path class="st62" d="M55,14.8c0.7,0.7,2.8-0.9,3.5-1.2C59.9,12.5,64,9,61,7.4"/>
		</g>
	</g>
	<g class="st2">
		<g>
			<defs>
				
					<rect id="SVGID_1923_" x="57.3" y="16.5" transform="matrix(0.9641 -0.2656 0.2656 0.9641 -2.411 16.3069)" width="3.5" height="1.1"/>
			</defs>
			<clipPath id="SVGID_64_">
				<use xlink:href="#SVGID_1923_"  style="overflow:visible;"/>
			</clipPath>
			<path class="st63" d="M60.7,16.2c-0.5,0.3-2.4,1.2-3.1,1.7"/>
		</g>
	</g>
	<g class="st2">
		<g>
			<defs>
				
					<rect id="SVGID_1925_" x="41.3" y="8.4" transform="matrix(0.9641 -0.2656 0.2656 0.9641 -1.5223 12.1945)" width="6.1" height="6.7"/>
			</defs>
			<clipPath id="SVGID_65_">
				<use xlink:href="#SVGID_1925_"  style="overflow:visible;"/>
			</clipPath>
			<path class="st64" d="M46.2,14.5c0.4-0.2,0.8-0.3,1-0.7c0.8-1.4-0.1-3-2.2-4.3c-0.7-0.4-2.3-0.5-4.5-0.1"/>
		</g>
	</g>
	<g class="st2">
		<g>
			<defs>
				
					<rect id="SVGID_1927_" x="45.4" y="18.9" transform="matrix(0.9641 -0.2656 0.2656 0.9641 -4.6596 14.7051)" width="13.2" height="11.4"/>
			</defs>
			<clipPath id="SVGID_66_">
				<use xlink:href="#SVGID_1927_"  style="overflow:visible;"/>
			</clipPath>
			<path class="st65" d="M58.1,28.6c0.7-0.2,0.9-0.3,1.1-0.8c0.9-1.9-1.8-4.2-5.7-6c-1.3-0.6-5.8-1.3-9.2-0.8"/>
		</g>
	</g>
	<g class="st2">
		<g>
			<defs>
				
					<rect id="SVGID_1929_" x="60.3" y="13.8" transform="matrix(0.9641 -0.2656 0.2656 0.9641 -1.6442 17.328)" width="5.8" height="1.9"/>
			</defs>
			<clipPath id="SVGID_67_">
				<use xlink:href="#SVGID_1929_"  style="overflow:visible;"/>
			</clipPath>
			<path class="st66" d="M60.7,16.3c2.5-1,5.3-2.3,5-3.1"/>
		</g>
	</g>
	<g class="st2">
		<g>
			<defs>
				
					<rect id="SVGID_1931_" x="27.1" y="15.5" transform="matrix(0.9641 -0.2656 0.2656 0.9641 -3.2992 8.0638)" width="2.1" height="1.4"/>
			</defs>
			<clipPath id="SVGID_68_">
				<use xlink:href="#SVGID_1931_"  style="overflow:visible;"/>
			</clipPath>
			<path class="st67" d="M29.3,16.5c-0.4,0.1-1.7,0-2.2-0.6"/>
		</g>
	</g>
	<g class="st2">
		<g>
			<defs>
				
					<rect id="SVGID_1933_" x="5.8" y="10.3" transform="matrix(0.9641 -0.2656 0.2656 0.9641 -2.5623 1.9716)" width="0.4" height="0.3"/>
			</defs>
			<clipPath id="SVGID_69_">
				<use xlink:href="#SVGID_1933_"  style="overflow:visible;"/>
			</clipPath>
			<path class="st68" d="M6,10.6c0-0.1,0.1-0.1,0.1-0.2"/>
		</g>
	</g>
	<g class="st2">
		<g>
			<defs>
				
					<rect id="SVGID_1935_" x="11" y="5.3" transform="matrix(0.9641 -0.2656 0.2656 0.9641 -1.9783 3.759)" width="3.7" height="7.8"/>
			</defs>
			<clipPath id="SVGID_70_">
				<use xlink:href="#SVGID_1935_"  style="overflow:visible;"/>
			</clipPath>
			<path class="st69" d="M15.6,12.4c-3-2.5-5.9-5.6-5-6.5"/>
		</g>
	</g>
	<g class="st2">
		<g>
			<defs>
				
					<rect id="SVGID_1937_" x="6.4" y="8.9" transform="matrix(0.9641 -0.2656 0.2656 0.9641 -2.8178 3.4185)" width="9.7" height="6.4"/>
			</defs>
			<clipPath id="SVGID_71_">
				<use xlink:href="#SVGID_1937_"  style="overflow:visible;"/>
			</clipPath>
			<path class="st70" d="M6.2,10.3C6,10.6,6,10.5,6,10.7c0,0.8,6.3,3,10.6,3"/>
		</g>
	</g>
	<g class="st2">
		<g>
			<defs>
				
					<rect id="SVGID_1939_" x="15.6" y="11.9" transform="matrix(0.9641 -0.2656 0.2656 0.9641 -2.838 4.977)" width="2.8" height="2.2"/>
			</defs>
			<clipPath id="SVGID_72_">
				<use xlink:href="#SVGID_1939_"  style="overflow:visible;"/>
			</clipPath>
			<path class="st71" d="M15.5,12.4c0.9,0.8,2,1.2,3,1.2"/>
		</g>
	</g>
	<g class="st2">
		<g>
			<defs>
				
					<rect id="SVGID_1941_" x="17.1" y="5.7" transform="matrix(0.9641 -0.2656 0.2656 0.9641 -1.9402 5.2602)" width="2.7" height="8.2"/>
			</defs>
			<clipPath id="SVGID_73_">
				<use xlink:href="#SVGID_1941_"  style="overflow:visible;"/>
			</clipPath>
			<path class="st72" d="M20.8,13.2c-1.1,0.4-2.8-1-3.5-3.2c-0.7-2.2-0.5-3.9,0.7-4.2c0.1,0,0.3-0.1,0.4,0"/>
		</g>
	</g>
	<g class="st2">
		<g>
			<defs>
				
					<rect id="SVGID_1943_" x="28.3" y="9.3" transform="matrix(0.9641 -0.2656 0.2656 0.9641 -2.316 8.462)" width="3.6" height="7"/>
			</defs>
			<clipPath id="SVGID_74_">
				<use xlink:href="#SVGID_1943_"  style="overflow:visible;"/>
			</clipPath>
			<path class="st73" d="M29.9,9.4c0.5,0,0.9,0.3,1.2,1c1,2.5,0,5.3-1.8,6.1"/>
		</g>
	</g>
	<g class="st2">
		<g>
			<defs>
				
					<rect id="SVGID_1945_" x="30.8" y="22.6" transform="matrix(0.9641 -0.2656 0.2656 0.9641 -4.861 10.8593)" width="13.9" height="1.5"/>
			</defs>
			<clipPath id="SVGID_75_">
				<use xlink:href="#SVGID_1945_"  style="overflow:visible;"/>
			</clipPath>
			<path class="st74" d="M31.2,25.8c4.4-1.4,10.4-4.3,13-4.8"/>
		</g>
	</g>
	<g class="st2">
		<g>
			<defs>
				<path id="SVGID_1947_" d="M23,13.9"/>
			</defs>
			<clipPath id="SVGID_76_">
				<use xlink:href="#SVGID_1947_"  style="overflow:visible;"/>
			</clipPath>
		</g>
	</g>
	<g class="st2">
		<g>
			<defs>
				<path id="SVGID_1949_" d="M23,14"/>
			</defs>
			<clipPath id="SVGID_77_">
				<use xlink:href="#SVGID_1949_"  style="overflow:visible;"/>
			</clipPath>
		</g>
	</g>
	<g class="st2">
		<g>
			<defs>
				<path id="SVGID_1951_" d="M26.1,8.6"/>
			</defs>
			<clipPath id="SVGID_78_">
				<use xlink:href="#SVGID_1951_"  style="overflow:visible;"/>
			</clipPath>
		</g>
	</g>
	<g class="st2">
		<g>
			<defs>
				<path id="SVGID_1953_" d="M22.4,11.8"/>
			</defs>
			<clipPath id="SVGID_79_">
				<use xlink:href="#SVGID_1953_"  style="overflow:visible;"/>
			</clipPath>
		</g>
	</g>
	<g class="st2">
		<g>
			<defs>
				
					<rect id="SVGID_1955_" x="4.3" y="14.4" transform="matrix(0.9641 -0.2656 0.2656 0.9641 -4.0436 2.4629)" width="5.6" height="3.6"/>
			</defs>
			<clipPath id="SVGID_80_">
				<use xlink:href="#SVGID_1955_"  style="overflow:visible;"/>
			</clipPath>
			<path class="st75" d="M4.2,15.2c-0.1,0.8,0.4,1.3,2.9,1.7c1.3,0.2,2.2,0.3,3.1,0.1"/>
		</g>
	</g>
	<g class="st2">
		<g>
			<defs>
				
					<rect id="SVGID_1957_" x="4.7" y="12.1" transform="matrix(0.9641 -0.2656 0.2656 0.9641 -3.3835 3.0896)" width="10.1" height="3.9"/>
			</defs>
			<clipPath id="SVGID_81_">
				<use xlink:href="#SVGID_1957_"  style="overflow:visible;"/>
			</clipPath>
			<path class="st76" d="M4.5,13.5c0.2,1.1,5.5,1.9,8.6,1.4c0.7-0.1,1.3-0.3,1.9-0.5"/>
		</g>
	</g>
	<g class="st2">
		<g>
			<defs>
				
					<rect id="SVGID_1959_" x="9.8" y="16.2" transform="matrix(0.9641 -0.2656 0.2656 0.9641 -3.9713 3.7125)" width="3.9" height="0.7"/>
			</defs>
			<clipPath id="SVGID_82_">
				<use xlink:href="#SVGID_1959_"  style="overflow:visible;"/>
			</clipPath>
			<path class="st77" d="M9.9,17.1c1.5-0.2,3.2-0.7,3.6-1.2"/>
		</g>
	</g>
	<g class="st2">
		<g>
			<defs>
				
					<rect id="SVGID_1961_" x="47.3" y="6.8" transform="matrix(0.9641 -0.2656 0.2656 0.9641 -1.0112 13.4227)" width="3.7" height="7.3"/>
			</defs>
			<clipPath id="SVGID_83_">
				<use xlink:href="#SVGID_1961_"  style="overflow:visible;"/>
			</clipPath>
			<path class="st78" d="M50,13.8c1.3-0.8,1.3-3.1,0.4-4.6c-0.8-1.4-2.5-2.5-4-1.6"/>
		</g>
	</g>
</g>
</svg>
